<?xml version="1.0" standalone="no"?>
  <!DOCTYPE svg PUBLIC "-//W3C//DTD SVG 1.1//EN" "http://www.w3.org/Graphics/SVG/1.1/DTD/svg11.dtd" >
  <svg>
  <metadata>
  Created by font-carrier
  </metadata>
  <defs>
  <font id="Effra-Medium" horiz-adv-x="1306" vert-adv-y="1306" >
    <font-face
      
      font-family="Effra"
      
      font-weight="400"
      
      font-stretch="normal"
      
      units-per-em="1000"
      
      ascent="950"
      
      descent="-250"
      
    />
      <missing-glyph />

      

      
      <glyph glyph-name="uni21" unicode="&#x21;" d="M76 209L74 667L205 667L203 209L76 209M68 0L68 138L211 138L211 0L68 0Z"  horiz-adv-x="279" vert-adv-y="1000"  />

      
      <glyph glyph-name="uni22" unicode="&#x22;" d="M53 435L53 667L165 667L165 435L53 435M223 435L223 667L335 667L335 435L223 435Z"  horiz-adv-x="388" vert-adv-y="1000"  />

      
      <glyph glyph-name="uni23" unicode="&#x23;" d="M121 0L161 151L68 151L68 244L186 244L224 386L129 386L129 479L249 479L289 629L395 629L355 479L478 479L518 629L624 629L584 479L677 479L677 386L559 386L521 244L616 244L616 151L496 151L456 0L350 0L390 151L267 151L227 0L121 0M292 244L415 244L453 386L330 386L292 244Z"  horiz-adv-x="745" vert-adv-y="1000"  />

      
      <glyph glyph-name="uni24" unicode="&#x24;" d="M13 104L97 181Q169 101 240 91L240 275Q236 276 231 277Q226 278 223 279Q47 327 47 462Q47 532 96 580.50Q145 629 240 637L240 729L315 729L315 637Q338 634 358.50 629Q379 624 395.50 616.50Q412 609 424.50 602.50Q437 596 448.50 586.50Q460 577 465.50 572Q471 567 480 558L488 549L405 474Q363 520 315 532L315 368Q506 322 506 171Q506 97 453.50 48Q401-1 315-13L315-106L240-106L240-15Q162-8 104.50 26.50Q47 61 13 104M315 254L315 93Q391 106 391 174Q391 202 375 220.50Q359 239 315 254M240 385L240 536Q160 525 160 462Q160 433 177 416Q194 399 240 385Z"  horiz-adv-x="545" vert-adv-y="1000"  />

      
      <glyph glyph-name="uni25" unicode="&#x25;" d="M203 0L609 630L716 630L310 0L203 0M325.50 332Q325.50 332 303.75 308.50Q282 285 210 285Q138 285 94.50 332Q51 379 51 466Q51 553 94.50 600Q138 647 210 647Q282 647 325.50 600Q369 553 369 466Q369 379 325.50 332M167 388.50Q167 388.50 176 376.25Q185 364 210 364Q235 364 253 388.50Q271 413 271 466Q271 519 253 543.50Q235 568 210 568Q185 568 167 543.50Q149 519 149 466Q149 413 167 388.50M830.50 38Q830.50 38 808.75 14.50Q787-9 715-9Q643-9 599.50 38Q556 85 556 172Q556 259 599.50 306Q643 353 715 353Q787 353 830.50 306Q874 259 874 172Q874 85 830.50 38M672 94.50Q672 94.50 681 82.25Q690 70 715 70Q740 70 758 94.50Q776 119 776 172Q776 225 758 249.50Q740 274 715 274Q690 274 672 249.50Q654 225 654 172Q654 119 672 94.50Z"  horiz-adv-x="925" vert-adv-y="1000"  />

      
      <glyph glyph-name="uni26" unicode="&#x26;" d="M480 0L429 61Q354-16 244-16Q140-16 83.50 39Q27 94 27 175Q27 293 158 386L156 389Q107 446 107 519Q107 588 158 636.50Q209 685 298 685Q422 685 477 573L389 517Q350 582 305 582Q271 582 251.50 564.50Q232 547 232 519Q232 480 274 433L434 239L520 344L608 273L507 150L632 0L480 0M357 148L226 304Q183 271 166.50 244Q150 217 150 182Q150 142 175.50 118.50Q201 95 250 95Q309 95 357 148Z"  horiz-adv-x="643" vert-adv-y="1000"  />

      
      <glyph glyph-name="uni27" unicode="&#x27;" d="M53 435L53 667L165 667L165 435L53 435Z"  horiz-adv-x="218" vert-adv-y="1000"  />

      
      <glyph glyph-name="uni28" unicode="&#x28;" d="M269-93L153-93Q58 88 58 306Q58 525 153 706L269 706Q233 645 208 534Q183 423 183 306Q183 189 208 77Q233-35 269-93Z"  horiz-adv-x="297" vert-adv-y="1000"  />

      
      <glyph glyph-name="uni29" unicode="&#x29;" d="M144-93L28-93Q63-33 88.50 79Q114 191 114 306Q114 422 88.50 533Q63 644 28 706L144 706Q239 525 239 306Q239 88 144-93Z"  horiz-adv-x="297" vert-adv-y="1000"  />

      
      <glyph glyph-name="uni2a" unicode="&#x2a;" d="M104 380L58 460L169 518L58 576L104 656L210 589L205 714L297 714L293 589L397 656L443 576L334 518L443 460L397 380L293 447L297 322L205 322L210 447L104 380Z"  horiz-adv-x="501" vert-adv-y="1000"  />

      
      <glyph glyph-name="uni2b" unicode="&#x2b;" d="M74 272L74 371L223 371L223 518L323 518L323 371L472 371L472 272L323 272L323 126L223 126L223 272L74 272Z"  horiz-adv-x="545" vert-adv-y="1000"  />

      
      <glyph glyph-name="uni2c" unicode="&#x2c;" d="M66-143L129 0L78 0L78 139L221 139L221 2L136-143L66-143Z"  horiz-adv-x="279" vert-adv-y="1000"  />

      
      <glyph glyph-name="uni2d" unicode="&#x2d;" d="M68 223L68 335L373 335L373 223L68 223Z"  horiz-adv-x="441" vert-adv-y="1000"  />

      
      <glyph glyph-name="uni2e" unicode="&#x2e;" d="M68 0L68 138L211 138L211 0L68 0Z"  horiz-adv-x="279" vert-adv-y="1000"  />

      
      <glyph glyph-name="uni2f" unicode="&#x2f;" d="M23-16L289 685L403 685L140-16L23-16Z"  horiz-adv-x="426" vert-adv-y="1000"  />

      
      <glyph glyph-name="uni30" unicode="&#x30;" d="M272-16Q153-16 89.50 76Q26 168 26 323Q26 473 89.50 560.50Q153 648 273 648Q392 648 455.50 560.50Q519 473 519 323Q519 168 455.50 76Q392-16 272-16M180 156.50Q180 156.50 196.50 124.25Q213 92 273 92Q333 92 365.50 156.50Q398 221 398 323Q398 421 365.50 480Q333 539 272 539Q212 539 179.50 480Q147 421 147 323Q147 221 180 156.50Z"  horiz-adv-x="545" vert-adv-y="1000"  />

      
      <glyph glyph-name="uni31" unicode="&#x31;" d="M131 0L131 103L239 103L239 501L118 437L69 529L254 630L357 630L357 103L461 103L461 0L131 0Z"  horiz-adv-x="545" vert-adv-y="1000"  />

      
      <glyph glyph-name="uni32" unicode="&#x32;" d="M63 0L63 79Q63 112 74 144Q85 176 96.50 196.50Q108 217 135.50 245.50Q163 274 175.50 285Q188 296 222 325Q236 337 261.50 358Q287 379 296 387Q305 395 317.50 409.50Q330 424 334 437Q338 450 338 467Q338 498 316.50 520.50Q295 543 248 543Q175 543 131 469L43 532Q113 648 258 648Q359 648 411.50 598Q464 548 464 478Q464 417 430 369.50Q396 322 336 272Q325 263 293.50 237.50Q262 212 252 203Q242 194 224.50 175.50Q207 157 201.50 141Q196 125 196 107L468 107L468 0L63 0Z"  horiz-adv-x="545" vert-adv-y="1000"  />

      
      <glyph glyph-name="uni33" unicode="&#x33;" d="M21 55L89 138Q149 85 223 85Q277 85 309 114.50Q341 144 341 192Q341 293 232 293Q212 293 176 284L141 340L302 521L66 521L66 629L443 629L443 539L303 375Q384 366 425 317Q466 268 466 191Q466 95 397.50 38.50Q329-18 224-18Q101-18 21 55Z"  horiz-adv-x="545" vert-adv-y="1000"  />

      
      <glyph glyph-name="uni34" unicode="&#x34;" d="M40 121L40 220L315 630L433 630L433 221L498 221L498 121L433 121L433 0L320 0L320 121L40 121M154 221L320 221L320 464L154 221Z"  horiz-adv-x="545" vert-adv-y="1000"  />

      
      <glyph glyph-name="uni35" unicode="&#x35;" d="M24 54L90 139Q148 87 227 87Q287 87 316.50 120.50Q346 154 346 204Q346 243 317 276.50Q288 310 221 310Q185 310 130 291L70 337L133 629L460 629L460 519L218 519L193 398Q213 407 258 407Q351 407 409.50 353Q468 299 468 209Q468 111 407.50 46.50Q347-18 220-18Q103-18 24 54Z"  horiz-adv-x="545" vert-adv-y="1000"  />

      
      <glyph glyph-name="uni36" unicode="&#x36;" d="M493 606L442 513L412 528Q374 544 334 544Q265 544 220 489.50Q175 435 175 364Q176 365 186 371Q196 377 199 378.50Q202 380 212.50 385.50Q223 391 228.50 393Q234 395 244.50 398.50Q255 402 263.50 403.50Q272 405 283.50 406.50Q295 408 307 408Q395 408 449 353Q503 298 503 202Q503 109 446 45.50Q389-18 288-18Q183-18 119.50 59.50Q56 137 56 292Q56 453 128.50 550.50Q201 648 335 648Q420 648 493 606M174 269Q174 85 288 85Q335 85 363.50 118.50Q392 152 392 206Q392 252 365.50 279.50Q339 307 296 307Q231 307 174 269Z"  horiz-adv-x="545" vert-adv-y="1000"  />

      
      <glyph glyph-name="uni37" unicode="&#x37;" d="M255 0L127 0Q167 128 238 289Q309 450 352 519L65 519L65 630L473 630L473 524Q431 457 357 283Q283 109 255 0Z"  horiz-adv-x="545" vert-adv-y="1000"  />

      
      <glyph glyph-name="uni38" unicode="&#x38;" d="M273 391Q312 402 336.50 428Q361 454 361 484Q361 517 336.50 538.50Q312 560 273 560Q236 560 210.50 538Q185 516 185 481Q185 454 209.50 428Q234 402 273 391M271 294Q223 284 189.50 252.50Q156 221 156 180Q156 131 191.50 106Q227 81 273 81Q319 81 354.50 106Q390 131 390 180Q390 221 355 252.50Q320 284 271 294M153 349Q120 368 97 404Q74 440 74 481Q74 556 129 602Q184 648 273 648Q368 648 420 603.50Q472 559 472 486Q472 442 448.50 407Q425 372 390 353Q510 302 510 179Q510 104 450 44Q390-16 273-16Q154-16 95 43Q36 102 36 177Q36 236 67 280.50Q98 325 153 349Z"  horiz-adv-x="545" vert-adv-y="1000"  />

      
      <glyph glyph-name="uni39" unicode="&#x39;" d="M56 26L104 121Q115 114 141 104Q187 88 227 88Q295 88 333 139Q371 190 373 263Q320 220 238 220Q152 220 96.50 280.50Q41 341 41 428Q41 520 100 584Q159 648 260 648Q365 648 428.50 570.50Q492 493 492 338Q492 178 424.50 81Q357-16 225-16Q175-16 127.50-2.50Q80 11 56 26M374 361Q374 545 260 545Q212 545 182 512.50Q152 480 152 427Q152 382 179.50 353.50Q207 325 254 325Q320 325 374 361Z"  horiz-adv-x="545" vert-adv-y="1000"  />

      
      <glyph glyph-name="uni3a" unicode="&#x3a;" d="M68 0L68 138L211 138L211 0L68 0M68 331L68 469L211 469L211 331L68 331Z"  horiz-adv-x="279" vert-adv-y="1000"  />

      
      <glyph glyph-name="uni3b" unicode="&#x3b;" d="M68-143L131 0L80 0L80 139L223 139L223 2L138-143L68-143M80 331L80 469L223 469L223 331L80 331Z"  horiz-adv-x="291" vert-adv-y="1000"  />

      
      <glyph glyph-name="uni3c" unicode="&#x3c;" d="M71 285L71 357L428 550L471 465L204 321L471 177L428 92L71 285Z"  horiz-adv-x="545" vert-adv-y="1000"  />

      
      <glyph glyph-name="uni3d" unicode="&#x3d;" d="M74 355L74 454L472 454L472 355L74 355M74 187L74 286L472 286L472 187L74 187Z"  horiz-adv-x="545" vert-adv-y="1000"  />

      
      <glyph glyph-name="uni3e" unicode="&#x3e;" d="M117 92L74 177L341 321L74 465L117 550L474 357L474 285L117 92Z"  horiz-adv-x="545" vert-adv-y="1000"  />

      
      <glyph glyph-name="uni3f" unicode="&#x3f;" d="M155 0L155 138L298 138L298 0L155 0M166 209L166 231Q166 281 182 324Q198 367 249 402Q276 420 292.50 433Q309 446 324 467Q339 488 339 508Q339 539 315.50 558Q292 577 252 577Q235 577 217.50 573Q200 569 187.50 564Q175 559 161.50 550.50Q148 542 141.50 537Q135 532 126 524Q117 516 116 516L38 586Q46 597 59 609.50Q72 622 98 641Q124 660 164.50 672Q205 684 253 684Q347 684 403 633.50Q459 583 459 511Q459 457 438.50 422Q418 387 371 353Q335 327 321.50 315.50Q308 304 297 282.50Q286 261 286 231L286 209L166 209Z"  horiz-adv-x="512" vert-adv-y="1000"  />

      
      <glyph glyph-name="uni40" unicode="&#x40;" d="M575 166L575 212L540 214Q502 216 484 216Q433 216 405.50 194.50Q378 173 378 142Q378 112 401 95Q424 78 466 78Q508 78 541.50 104.50Q575 131 575 166M251 53L182-18Q128 20 85.50 98Q43 176 43 276Q43 377 79.50 457.50Q116 538 178.50 587Q241 636 318 661.50Q395 687 481 687Q606 687 702 645.50Q798 604 856.50 514Q915 424 915 295Q915 225 900 169Q885 113 861.50 79Q838 45 808 23Q778 1 750.50-7.50Q723-16 697-16Q618-16 594 44Q554 8 515.50-4Q477-16 420-16Q367-16 317.50 24.50Q268 65 268 137Q268 217 324 261Q380 305 474 305Q496 305 538 303L575 301L575 312Q575 347 549 367Q523 387 480 387Q405 387 341 346L287 426Q325 455 370 470Q415 485 494 485Q581 485 634.50 437.50Q688 390 688 315L688 119Q688 104 696.50 94.50Q705 85 719 85Q739 85 758.50 104Q778 123 794 174Q810 225 810 300Q810 376 782 434.50Q754 493 705.50 526.50Q657 560 599.50 576.50Q542 593 476 593Q419 593 365 576Q311 559 262 524.50Q213 490 183 428Q153 366 153 285Q153 200 183 141.50Q213 83 251 53Z"  horiz-adv-x="958" vert-adv-y="1000"  />

      
      <glyph glyph-name="uni41" unicode="&#x41;" d="M5 0L258 667L388 667L641 0L501 0L443 169L195 169L137 0L5 0M230 273L407 273L319 532L230 273Z"  horiz-adv-x="646" vert-adv-y="1000"  />

      
      <glyph glyph-name="uni42" unicode="&#x42;" d="M70 0L70 667L299 667Q401 667 458 618Q515 569 515 493Q515 432 476 393Q437 354 409 354Q458 349 503 309Q548 269 548 191Q548 0 299 0L70 0M191 401L293 401Q336 401 365 420.50Q394 440 394 482Q394 524 364.50 542Q335 560 293 560L191 560L191 401M191 107L298 107Q423 107 423 200Q423 253 385 274.50Q347 296 298 296L191 296L191 107Z"  horiz-adv-x="596" vert-adv-y="1000"  />

      
      <glyph glyph-name="uni43" unicode="&#x43;" d="M569 198L657 122Q623 70 547 27Q471-16 383-16Q234-16 139 82Q44 180 44 330Q44 478 140.50 580.50Q237 683 387 683Q562 683 657 549L568 470Q496 572 387 572Q292 572 234 502.50Q176 433 176 333Q176 235 233 169Q290 103 381 103Q414 103 440.50 108.50Q467 114 489.50 128.50Q512 143 521.50 149.50Q531 156 550 177L569 198Z"  horiz-adv-x="680" vert-adv-y="1000"  />

      
      <glyph glyph-name="uni44" unicode="&#x44;" d="M70 0L70 667L319 667Q482 667 577.50 583Q673 499 673 330Q673 170 575.50 85Q478 0 318 0L70 0M196 112L307 112Q421 112 481 167Q541 222 541 328Q541 555 307 555L196 555L196 112Z"  horiz-adv-x="726" vert-adv-y="1000"  />

      
      <glyph glyph-name="uni45" unicode="&#x45;" d="M70 0L70 667L502 667L502 556L196 556L196 399L421 399L421 287L196 287L196 113L525 113L525 0L70 0Z"  horiz-adv-x="568" vert-adv-y="1000"  />

      
      <glyph glyph-name="uni46" unicode="&#x46;" d="M70 0L70 667L501 667L501 556L196 556L196 383L424 383L424 271L196 271L196 0L70 0Z"  horiz-adv-x="534" vert-adv-y="1000"  />

      
      <glyph glyph-name="uni47" unicode="&#x47;" d="M421 246L421 353L660 353L660 77Q561-16 393-16Q233-16 138.50 82Q44 180 44 330Q44 478 140.50 580.50Q237 683 387 683Q562 683 657 549L568 470Q496 572 387 572Q292 572 234 502.50Q176 433 176 333Q176 228 240.50 163Q305 98 398 98Q490 98 540 142L540 246L421 246Z"  horiz-adv-x="723" vert-adv-y="1000"  />

      
      <glyph glyph-name="uni48" unicode="&#x48;" d="M70 0L70 667L196 667L196 399L527 399L527 667L653 667L653 0L527 0L527 287L196 287L196 0L70 0Z"  horiz-adv-x="723" vert-adv-y="1000"  />

      
      <glyph glyph-name="uni49" unicode="&#x49;" d="M70 0L70 667L196 667L196 0L70 0Z"  horiz-adv-x="266" vert-adv-y="1000"  />

      
      <glyph glyph-name="uni4a" unicode="&#x4a;" d="M10 77L98 157Q129 123 155.50 111Q182 99 219 99Q258 99 287.50 126.50Q317 154 317 203L317 667L443 667L443 196Q443 86 379 34Q315-18 225-18Q85-18 10 77Z"  horiz-adv-x="508" vert-adv-y="1000"  />

      
      <glyph glyph-name="uni4b" unicode="&#x4b;" d="M70 0L70 667L196 667L196 393L443 667L586 667L340 394L613 0L461 0L258 303L196 234L196 0L70 0Z"  horiz-adv-x="621" vert-adv-y="1000"  />

      
      <glyph glyph-name="uni4c" unicode="&#x4c;" d="M70 0L70 667L196 667L196 112L525 112L525 0L70 0Z"  horiz-adv-x="553" vert-adv-y="1000"  />

      
      <glyph glyph-name="uni4d" unicode="&#x4d;" d="M62 0L94 667L211 667L396 352L578 667L695 667L727 0L604 0L582 462L422 190L363 190L202 455L180 0L62 0Z"  horiz-adv-x="789" vert-adv-y="1000"  />

      
      <glyph glyph-name="uni4e" unicode="&#x4e;" d="M70 0L70 667L197 667L520 193L520 667L643 667L643 0L519 0L193 480L193 0L70 0Z"  horiz-adv-x="713" vert-adv-y="1000"  />

      
      <glyph glyph-name="uni4f" unicode="&#x4f;" d="M637 84.50Q637 84.50 586.50 33.25Q536-18 391-18Q246-18 145 84.50Q44 187 44 334Q44 481 144.50 583Q245 685 391 685Q536 685 637 582.50Q738 480 738 334Q738 187 637 84.50M235.50 170Q235.50 170 265.25 135.50Q295 101 391 101Q487 101 546.50 170Q606 239 606 337Q606 436 547 503.50Q488 571 391 571Q294 571 235 503.50Q176 436 176 337Q176 239 235.50 170Z"  horiz-adv-x="782" vert-adv-y="1000"  />

      
      <glyph glyph-name="uni50" unicode="&#x50;" d="M70 0L70 667L284 667Q350 667 398 646Q446 625 470 591.50Q494 558 504.50 525Q515 492 515 459Q515 405 495 363.50Q475 322 442.50 297.50Q410 273 371.50 260.50Q333 248 292 248L191 248L191 0L70 0M191 354L282 354Q330 354 358.50 382Q387 410 387 455Q387 502 357 531.50Q327 561 282 561L191 561L191 354Z"  horiz-adv-x="558" vert-adv-y="1000"  />

      
      <glyph glyph-name="uni51" unicode="&#x51;" d="M628-83L548 19Q472-18 391-18Q246-18 145 84.50Q44 187 44 334Q44 481 144.50 583Q245 685 391 685Q536 685 637 582.50Q738 480 738 334Q738 181 628 76L703-20L628-83M472 116L396 214L471 277L550 175Q606 242 606 337Q606 436 547 503.50Q488 571 391 571Q294 571 235 503.50Q176 436 176 337Q176 239 235.50 170Q295 101 391 101Q434 101 472 116Z"  horiz-adv-x="782" vert-adv-y="1000"  />

      
      <glyph glyph-name="uni52" unicode="&#x52;" d="M70 0L70 667L291 667Q351 667 397.50 648Q444 629 469.50 599Q495 569 508 535.50Q521 502 521 468Q521 336 409 279L563 0L421 0L286 263L191 263L191 0L70 0M191 367L292 367Q339 367 366 394.50Q393 422 393 463Q393 506 365 533Q337 560 292 560L191 560L191 367Z"  horiz-adv-x="586" vert-adv-y="1000"  />

      
      <glyph glyph-name="uni53" unicode="&#x53;" d="M31 107L119 188Q197 98 288 98Q345 98 374.50 124Q404 150 404 190Q404 233 369 256.50Q334 280 244 298Q156 315 110.50 368.50Q65 422 65 493Q65 574 125 629.50Q185 685 297 685Q430 685 508 594Q510 592 511 591L428 513L419 522Q410 530 404 534.50Q398 539 384.50 547.50Q371 556 359 561Q347 566 329.50 570Q312 574 293 574Q245 574 218.50 550.50Q192 527 192 499Q192 462 222 439.50Q252 417 331 402Q419 384 474.50 332Q530 280 530 187Q530 100 462 41Q394-18 290-18Q130-18 31 107Z"  horiz-adv-x="593" vert-adv-y="1000"  />

      
      <glyph glyph-name="uni54" unicode="&#x54;" d="M249 0L249 556L23 556L23 667L601 667L601 556L375 556L375 0L249 0Z"  horiz-adv-x="624" vert-adv-y="1000"  />

      
      <glyph glyph-name="uni55" unicode="&#x55;" d="M65 246L65 667L191 667L191 268Q191 188 225 145.50Q259 103 337 103Q415 103 449 145.50Q483 188 483 268L483 667L609 667L609 246Q609 131 536 56.50Q463-18 337-18Q211-18 138 56.50Q65 131 65 246Z"  horiz-adv-x="674" vert-adv-y="1000"  />

      
      <glyph glyph-name="uni56" unicode="&#x56;" d="M253 0L5 667L145 667L322 158L499 667L631 667L383 0L253 0Z"  horiz-adv-x="636" vert-adv-y="1000"  />

      
      <glyph glyph-name="uni57" unicode="&#x57;" d="M183 0L10 667L148 667L257 168L386 648L500 648L630 168L738 667L870 667L695 0L563 0L439 441L313 0L183 0Z"  horiz-adv-x="880" vert-adv-y="1000"  />

      
      <glyph glyph-name="uni58" unicode="&#x58;" d="M5 0L227 345L14 667L166 667L305 449L439 667L576 667L371 348L600 0L448 0L294 243L142 0L5 0Z"  horiz-adv-x="605" vert-adv-y="1000"  />

      
      <glyph glyph-name="uni59" unicode="&#x59;" d="M236 0L236 293L5 667L143 667L303 401L463 667L595 667L364 293L364 0L236 0Z"  horiz-adv-x="600" vert-adv-y="1000"  />

      
      <glyph glyph-name="uni5a" unicode="&#x5a;" d="M53 0L53 110L446 556L71 556L71 667L597 667L597 556L212 110L605 110L605 0L53 0Z"  horiz-adv-x="658" vert-adv-y="1000"  />

      
      <glyph glyph-name="uni5b" unicode="&#x5b;" d="M73-93L73 706L307 706L307 601L191 601L191 14L307 14L307-93L73-93Z"  horiz-adv-x="330" vert-adv-y="1000"  />

      
      <glyph glyph-name="uni5c" unicode="&#x5c;" d="M286-16L23 685L137 685L403-16L286-16Z"  horiz-adv-x="426" vert-adv-y="1000"  />

      
      <glyph glyph-name="uni5d" unicode="&#x5d;" d="M23-93L23 14L139 14L139 601L23 601L23 706L257 706L257-93L23-93Z"  horiz-adv-x="330" vert-adv-y="1000"  />

      
      <glyph glyph-name="uni5e" unicode="&#x5e;" d="M53 308L226 667L336 667L509 308L392 308L281 553L170 308L53 308Z"  horiz-adv-x="562" vert-adv-y="1000"  />

      
      <glyph glyph-name="uni5f" unicode="&#x5f;" d="M0-120L0-65L500-65L500-120L0-120Z"  horiz-adv-x="500" vert-adv-y="1000"  />

      
      <glyph glyph-name="uni60" unicode="&#x60;" d="M223 540L144 682L270 682L318 540L223 540Z"  horiz-adv-x="502" vert-adv-y="1000"  />

      
      <glyph glyph-name="uni61" unicode="&#x61;" d="M338 0L335 44Q315 19 275.50 2Q236-15 190-15Q126-15 77 24.50Q28 64 28 137Q28 217 84 261Q140 305 234 305Q256 305 298 303L335 301L335 312Q335 347 307.50 367Q280 387 234 387Q165 387 101 346L47 426Q130 485 250 485Q339 485 393.50 438Q448 391 448 315L448 0L338 0M335 166L335 212L300 214Q262 216 244 216Q191 216 166 195Q141 174 141 142Q141 78 226 78Q268 78 301.50 104.50Q335 131 335 166Z"  horiz-adv-x="504" vert-adv-y="1000"  />

      
      <glyph glyph-name="uni62" unicode="&#x62;" d="M58 15L58 667L176 667L176 437Q191 452 226 465.50Q261 479 304 479Q402 479 460.50 410.50Q519 342 519 240Q519 132 446 58Q373-16 254-16Q147-16 58 15M176 273L176 96Q203 86 252 86Q320 86 359.50 130.50Q399 175 399 237Q399 296 370 336Q341 376 285 376Q232 376 204 349Q176 322 176 273Z"  horiz-adv-x="555" vert-adv-y="1000"  />

      
      <glyph glyph-name="uni63" unicode="&#x63;" d="M401 138L471 62Q399-15 288-15Q170-15 103 53Q36 121 36 235Q36 339 107 412Q178 485 288 485Q401 485 472 409L397 333Q354 382 288 382Q223 382 189 339.50Q155 297 155 235Q155 176 189.50 132Q224 88 288 88Q357 88 401 138Z"  horiz-adv-x="492" vert-adv-y="1000"  />

      
      <glyph glyph-name="uni64" unicode="&#x64;" d="M385 0L382 46Q327-16 242-16Q161-16 98.50 50Q36 116 36 226Q36 325 92 393Q128 436 179.50 457.50Q231 479 272 479Q301 479 322 475.50Q343 472 350 470Q357 468 382 458L382 667L499 667L499 0L385 0M382 208L382 352Q352 377 285 377Q226 377 187 328Q155 285 155 226Q155 164 186 125Q217 86 272 86Q327 86 354.50 123.50Q382 161 382 208Z"  horiz-adv-x="557" vert-adv-y="1000"  />

      
      <glyph glyph-name="uni65" unicode="&#x65;" d="M435 140L499 68L497 66Q422-16 284-16Q172-16 104 55Q36 126 36 240Q36 345 103 415Q170 485 274 485Q336 485 382.50 462Q429 439 454.50 399.50Q480 360 492.50 314Q505 268 505 216L505 199L155 199Q155 150 195.50 117.50Q236 85 285 85Q380 85 435 140M154 284L384 284Q384 323 354.50 354.50Q325 386 274 386Q220 386 187 354.50Q154 323 154 284Z"  horiz-adv-x="538" vert-adv-y="1000"  />

      
      <glyph glyph-name="uni66" unicode="&#x66;" d="M93 0L93 373L13 373L13 469L93 469L93 498Q93 592 145.50 638.50Q198 685 267 685Q356 685 413 636L358 558Q323 583 286 583Q250 583 230 560.50Q210 538 210 496L210 469L331 469L331 373L211 373L211 0L93 0Z"  horiz-adv-x="340" vert-adv-y="1000"  />

      
      <glyph glyph-name="uni67" unicode="&#x67;" d="M81-163L134-76Q187-112 271-112Q318-112 348.50-83.50Q379-55 379-6L379 45Q326 0 251 0Q152 0 94 63.50Q36 127 36 228Q36 336 108.50 407.50Q181 479 301 479Q408 479 497 448L497-8Q497-104 434.50-158Q372-212 273-212Q145-212 81-163M379 199L379 367Q352 377 303 377Q235 377 195.50 334.50Q156 292 156 231Q156 174 184.50 138.50Q213 103 270 103Q379 103 379 199Z"  horiz-adv-x="555" vert-adv-y="1000"  />

      
      <glyph glyph-name="uni68" unicode="&#x68;" d="M58 0L58 667L174 667L174 421Q226 479 315 479Q401 479 448 426.50Q495 374 495 285L495 0L377 0L377 284Q377 328 353 353Q329 378 289 378Q241 378 208.50 342Q176 306 176 254L176 0L58 0Z"  horiz-adv-x="551" vert-adv-y="1000"  />

      
      <glyph glyph-name="uni69" unicode="&#x69;" d="M59 543L59 667L185 667L185 543L59 543M63 0L63 469L181 469L181 0L63 0Z"  horiz-adv-x="244" vert-adv-y="1000"  />

      
      <glyph glyph-name="uni6a" unicode="&#x6a;" d="M58 543L58 667L184 667L184 543L58 543M-87-163L-43-83Q-16-99 11-99Q35-99 49-79.50Q63-60 63-24L63 469L181 469L181-1Q181-200 27-200Q-34-200-87-163Z"  horiz-adv-x="244" vert-adv-y="1000"  />

      
      <glyph glyph-name="uni6b" unicode="&#x6b;" d="M58 0L58 667L176 667L176 303L345 469L484 469L308 296L504 0L363 0L227 216L176 166L176 0L58 0Z"  horiz-adv-x="512" vert-adv-y="1000"  />

      
      <glyph glyph-name="uni6c" unicode="&#x6c;" d="M58 0L58 667L176 667L176 0L58 0Z"  horiz-adv-x="234" vert-adv-y="1000"  />

      
      <glyph glyph-name="uni6d" unicode="&#x6d;" d="M58 0L58 469L171 469L174 416Q230 479 310 479Q403 479 451 411Q487 448 524.50 463.50Q562 479 612 479Q700 479 748 427Q796 375 796 285L796 0L678 0L678 284Q678 329 655.50 353.50Q633 378 594 378Q546 378 516 342.50Q486 307 486 254L486 0L368 0L368 284Q368 329 345.50 353.50Q323 378 284 378Q236 378 206 342.50Q176 307 176 254L176 0L58 0Z"  horiz-adv-x="852" vert-adv-y="1000"  />

      
      <glyph glyph-name="uni6e" unicode="&#x6e;" d="M58 0L58 469L171 469L174 416Q232 479 315 479Q402 479 448.50 427.50Q495 376 495 285L495 0L377 0L377 284Q377 328 353 353Q329 378 289 378Q241 378 208.50 342Q176 306 176 254L176 0L58 0Z"  horiz-adv-x="551" vert-adv-y="1000"  />

      
      <glyph glyph-name="uni6f" unicode="&#x6f;" d="M107 57.50Q107 57.50 71.50 94.25Q36 131 36 235Q36 339 107 412Q178 485 288 485Q398 485 469 412Q540 339 540 235Q540 131 469 57.50Q398-16 288-16Q178-16 107 57.50M190 132Q190 132 207.50 109Q225 86 288 86Q351 86 386 132Q421 178 421 235Q421 292 386 337.50Q351 383 288 383Q225 383 190 337.50Q155 292 155 235Q155 178 190 132Z"  horiz-adv-x="576" vert-adv-y="1000"  />

      
      <glyph glyph-name="uni70" unicode="&#x70;" d="M58-200L58 469L172 469L175 416Q230 478 324 478Q425 478 480 405.50Q535 333 535 232Q535 138 479 70Q408-16 294-16Q283-16 272.50-15.50Q262-15 254.50-14Q247-13 238-11.50Q229-10 224.50-8.50Q220-7 211.50-4.50Q203-2 200-0.50Q197 1 187.50 4.50Q178 8 175 9L175-200L58-200M175 254L175 115Q210 86 281 86Q342 86 379 129.50Q416 173 416 232Q416 297 387 336.50Q358 376 294 376Q243 376 209 336.50Q175 297 175 254Z"  horiz-adv-x="571" vert-adv-y="1000"  />

      
      <glyph glyph-name="uni71" unicode="&#x71;" d="M379-200L379 27Q336-16 262-16Q157-16 96.50 54Q36 124 36 228Q36 336 108.50 407.50Q181 479 301 479Q408 479 497 448L497-200L379-200M379 195L379 367Q352 377 303 377Q229 377 192.50 336.50Q156 296 156 231Q156 171 185 129Q214 87 270 87Q326 87 352.50 112Q379 137 379 195Z"  horiz-adv-x="555" vert-adv-y="1000"  />

      
      <glyph glyph-name="uni72" unicode="&#x72;" d="M58 0L58 469L171 469L174 410Q229 478 315 478Q349 478 373 469L349 358Q328 367 295 367Q245 367 210.50 335.50Q176 304 176 253L176 0L58 0Z"  horiz-adv-x="382" vert-adv-y="1000"  />

      
      <glyph glyph-name="uni73" unicode="&#x73;" d="M35 57L106 134Q157 83 238 83Q322 83 322 126Q322 147 298.50 162Q275 177 203 194Q53 232 53 338Q53 404 112 444.50Q171 485 246 485Q360 485 430 433L369 350Q320 387 246 387Q171 387 171 344Q171 323 196 310.50Q221 298 284 283Q360 266 400 231Q440 196 440 132Q440 66 381.50 25Q323-16 239-16Q100-16 35 57Z"  horiz-adv-x="478" vert-adv-y="1000"  />

      
      <glyph glyph-name="uni74" unicode="&#x74;" d="M98 160L98 373L18 373L18 469L98 469L98 621L216 621L216 469L342 469L342 373L216 373L216 168Q216 85 273 85Q313 85 349 112L399 39Q334-15 254-15Q98-15 98 160Z"  horiz-adv-x="402" vert-adv-y="1000"  />

      
      <glyph glyph-name="uni75" unicode="&#x75;" d="M56 184L56 469L174 469L174 185Q174 141 198 116Q222 91 262 91Q310 91 342.50 127Q375 163 375 215L375 469L493 469L493 0L380 0L377 53Q321-10 236-10Q149-10 102.50 41.50Q56 93 56 184Z"  horiz-adv-x="551" vert-adv-y="1000"  />

      
      <glyph glyph-name="uni76" unicode="&#x76;" d="M204 0L5 469L141 469L267 133L393 469L522 469L324 0L204 0Z"  horiz-adv-x="527" vert-adv-y="1000"  />

      
      <glyph glyph-name="uni77" unicode="&#x77;" d="M168 0L9 469L139 469L229 143L328 469L427 469L527 143L616 469L740 469L581 0L467 0L371 283L278 0L168 0Z"  horiz-adv-x="749" vert-adv-y="1000"  />

      
      <glyph glyph-name="uni78" unicode="&#x78;" d="M5 0L183 237L13 469L162 469L256 333L351 469L484 469L319 249L502 0L353 0L246 153L138 0L5 0Z"  horiz-adv-x="507" vert-adv-y="1000"  />

      
      <glyph glyph-name="uni79" unicode="&#x79;" d="M24-176L77-93Q104-116 129-116Q152-116 167.50-97.50Q183-79 201-34L216 4L5 469L141 469L275 148L393 469L522 469L326 0Q323-9 311-40Q299-71 293.50-83Q288-95 275-121Q262-147 250.50-158.50Q239-170 222-185Q205-200 183.50-206Q162-212 137-212Q66-212 24-176Z"  horiz-adv-x="527" vert-adv-y="1000"  />

      
      <glyph glyph-name="uni7a" unicode="&#x7a;" d="M46 0L46 90L285 370L53 370L53 469L432 469L432 377L185 96L432 96L432 0L46 0Z"  horiz-adv-x="472" vert-adv-y="1000"  />

      
      <glyph glyph-name="uni7b" unicode="&#x7b;" d="M118 29L104 199Q99 272 31 272L31 342Q99 342 104 415L118 585Q125 672 167 706L291 706Q273 688 259 656.50Q245 625 243 596L227 401Q224 366 204.50 340.50Q185 315 157 307Q185 299 204.50 273.50Q224 248 227 213L243 18Q245-11 259-43Q273-75 291-93L167-93Q126-60 118 29Z"  horiz-adv-x="304" vert-adv-y="1000"  />

      
      <glyph glyph-name="uni7c" unicode="&#x7c;" d="M68-164L68 833L177 833L177-164L68-164Z"  horiz-adv-x="245" vert-adv-y="1000"  />

      
      <glyph glyph-name="uni7d" unicode="&#x7d;" d="M137-93L13-93Q31-75 45-43Q59-11 61 18L77 213Q80 248 99.50 273.50Q119 299 147 307Q119 315 99.50 340.50Q80 366 77 401L61 596Q59 625 45 656.50Q31 688 13 706L137 706Q179 672 186 585L200 415Q205 342 273 342L273 272Q205 272 200 199L186 29Q178-60 137-93Z"  horiz-adv-x="304" vert-adv-y="1000"  />

      
      <glyph glyph-name="uni7e" unicode="&#x7e;" d="M88 238L38 314Q60 339 96 359Q132 379 171 379Q202 379 243.50 356Q285 333 314 333Q331 333 347.50 338Q364 343 372.50 347.50Q381 352 394.50 361.50Q408 371 411 373L461 297Q399 230 329 230Q298 230 256 254Q214 278 185 278Q176 278 167.50 276.50Q159 275 152.50 274Q146 273 138 269.50Q130 266 126 264Q122 262 114.50 257Q107 252 105 250.50Q103 249 96 243.50Q89 238 88 238Z"  horiz-adv-x="499" vert-adv-y="1000"  />

      
      <glyph glyph-name="unia1" unicode="&#xa1;" d="M74-198L76 260L203 260L205-198L74-198M68 331L68 469L211 469L211 331L68 331Z"  horiz-adv-x="279" vert-adv-y="1000"  />

      
      <glyph glyph-name="unia2" unicode="&#xa2;" d="M277-19L277 67Q181 81 126.50 148.50Q72 216 72 314Q72 406 128.50 475Q185 544 277 560L277 649L352 649L352 562Q448 552 508 488L433 412Q400 450 352 460L352 169Q404 178 437 217L507 141Q447 75 352 65L352-19L277-19M277 175L277 453Q235 437 213 398Q191 359 191 314Q191 273 213.50 232.50Q236 192 277 175Z"  horiz-adv-x="545" vert-adv-y="1000"  />

      
      <glyph glyph-name="unia3" unicode="&#xa3;" d="M117 0L117 269L41 269L41 365L117 365L117 442Q117 466 122.50 491.50Q128 517 142.50 546Q157 575 179.50 597Q202 619 241 633.50Q280 648 329 648Q377 648 417 633Q457 618 472.50 606.50Q488 595 511 573L434 490Q409 515 387.50 526Q366 537 331 537Q286 537 264.50 503Q243 469 243 418L243 365L437 365L437 269L243 269L243 112L517 112L517 0L117 0Z"  horiz-adv-x="545" vert-adv-y="1000"  />

      
      <glyph glyph-name="unia4" unicode="&#xa4;" d="M32 162L95 226Q67 272 67 329Q67 385 95 432L32 496L101 565L164 502Q214 534 272 534Q329 534 380 502L443 565L512 496L448 432Q477 385 477 329Q477 273 448 226L512 162L443 93L380 155Q331 124 272 124Q211 124 164 155L101 93L32 162M195 406Q195 406 179 390Q163 374 163 329Q163 284 195 252Q227 220 272 220Q317 220 349 252Q381 284 381 329Q381 374 349 406Q317 438 272 438Q227 438 195 406Z"  horiz-adv-x="545" vert-adv-y="1000"  />

      
      <glyph glyph-name="unia5" unicode="&#xa5;" d="M74 116L74 190L213 190L213 267L74 267L74 341L171 341L6 631L144 631L276 365L407 631L539 631L374 341L482 341L482 267L333 267L333 190L482 190L482 116L333 116L333 0L213 0L213 116L74 116Z"  horiz-adv-x="545" vert-adv-y="1000"  />

      
      <glyph glyph-name="unia6" unicode="&#xa6;" d="M68-164L68 215L177 215L177-164L68-164M68 454L68 833L177 833L177 454L68 454Z"  horiz-adv-x="245" vert-adv-y="1000"  />

      
      <glyph glyph-name="unia7" unicode="&#xa7;" d="M342 195L141 327Q43 390 45 495Q45 573 97 629Q149 685 239 685Q308 685 385 629L328 543Q277 578 237 578Q203 578 181.50 556Q160 534 160 507Q160 481 170 462Q180 443 213 421L406 290L342 195M57-156L114-70Q165-105 205-105Q239-105 260.50-83Q282-61 282-34Q282-8 272 11Q262 30 229 52L36 183L100 278L301 146Q399 83 397-22Q397-100 345-156Q293-212 203-212Q134-212 57-156Z"  horiz-adv-x="452" vert-adv-y="1000"  />

      
      <glyph glyph-name="unia8" unicode="&#xa8;" d="M207 557L207 666L322 666L322 557L207 557M22 557L22 666L137 666L137 557L22 557Z"  horiz-adv-x="346" vert-adv-y="1000"  />

      
      <glyph glyph-name="unia9" unicode="&#xa9;" d="M650 87.50Q650 87.50 599.50 36.75Q549-14 404-14Q259-14 158.50 87.50Q58 189 58 335Q58 481 158.50 582.50Q259 684 405 684Q550 684 650.50 582.50Q751 481 751 335Q751 189 650 87.50M220.50 145.50Q220.50 145.50 257.25 107.25Q294 69 404 69Q514 69 587.50 145.50Q661 222 661 335Q661 447 587 524Q513 601 405 601Q296 601 221.50 524Q147 447 147 335Q147 222 220.50 145.50M497 279L562 227Q506 147 410 147Q325 147 272.50 201Q220 255 220 338Q220 417 274 472Q328 527 410 527Q506 527 562 447L497 397Q464 444 415 444Q369 444 341 413.50Q313 383 313 337Q313 294 342 263Q371 232 415 232Q464 232 497 279Z"  horiz-adv-x="809" vert-adv-y="1000"  />

      
      <glyph glyph-name="uniaa" unicode="&#xaa;" d="M90 546L48 606Q103 648 186 648Q248 648 286 615Q324 582 324 530L324 322L243 322Q242 325 242 331Q242 334 241.50 339Q241 344 241 347Q228 334 203.50 324Q179 314 157 314Q108 314 73.50 339.50Q39 365 39 416Q39 470 76.50 496.50Q114 523 180 523Q206 523 241 520L241 528Q241 575 183 575Q136 575 90 546M241 436L241 454Q228 457 186 457Q120 457 120 419Q120 399 132.50 391.50Q145 384 174 384Q201 384 221 400Q241 416 241 436Z"  horiz-adv-x="379" vert-adv-y="1000"  />

      
      <glyph glyph-name="uniab" unicode="&#xab;" d="M162 47L58 241L162 435L277 435L178 241L277 47L162 47M358 47L254 241L358 435L473 435L374 241L473 47L358 47Z"  horiz-adv-x="536" vert-adv-y="1000"  />

      
      <glyph glyph-name="uniac" unicode="&#xac;" d="M74 272L74 371L472 371L472 126L372 126L372 272L74 272Z"  horiz-adv-x="545" vert-adv-y="1000"  />

      
      <glyph glyph-name="uniad" unicode="&#xad;" d="M68 223L68 335L373 335L373 223L68 223Z"  horiz-adv-x="441" vert-adv-y="1000"  />

      
      <glyph glyph-name="uniae" unicode="&#xae;" d="M274 166L274 511L419 511Q483 511 515.50 478.50Q548 446 548 407Q548 338 485 309L568 166L476 166L401 297L357 297L357 166L274 166M357 361L416 361Q464 361 464 401Q464 443 416 443L357 443L357 361M650 87.50Q650 87.50 599.50 36.75Q549-14 404-14Q259-14 158.50 87.50Q58 189 58 335Q58 481 158.50 582.50Q259 684 405 684Q550 684 650.50 582.50Q751 481 751 335Q751 189 650 87.50M220.50 145.50Q220.50 145.50 257.25 107.25Q294 69 404 69Q514 69 587.50 145.50Q661 222 661 335Q661 447 587 524Q513 601 405 601Q296 601 221.50 524Q147 447 147 335Q147 222 220.50 145.50Z"  horiz-adv-x="809" vert-adv-y="1000"  />

      
      <glyph glyph-name="uniaf" unicode="&#xaf;" d="M43 557L43 649L304 649L304 557L43 557Z"  horiz-adv-x="347" vert-adv-y="1000"  />

      
      <glyph glyph-name="unib0" unicode="&#xb0;" d="M28 530Q28 589 69 628Q110 667 168 667Q227 667 268 628Q309 589 309 531Q309 472 268 433Q227 394 169 394Q110 394 69 433Q28 472 28 530M169 467Q196 467 213.50 485Q231 503 231 531Q231 558 213.50 576Q196 594 168 594Q141 594 123.50 576Q106 558 106 530Q106 503 123.50 485Q141 467 169 467Z"  horiz-adv-x="337" vert-adv-y="1000"  />

      
      <glyph glyph-name="unib1" unicode="&#xb1;" d="M74 0L74 99L472 99L472 0L74 0M74 272L74 371L223 371L223 518L323 518L323 371L472 371L472 272L323 272L323 136L223 136L223 272L74 272Z"  horiz-adv-x="545" vert-adv-y="1000"  />

      
      <glyph glyph-name="unib2" unicode="&#xb2;" d="M49 295L49 340Q49 375 75 406Q101 437 132 455Q163 473 189 493.50Q215 514 215 531Q215 564 176 564Q135 564 79 529L43 599Q112 647 188 647Q251 647 283.50 617.50Q316 588 316 541Q316 498 290 470.50Q264 443 221 418.50Q178 394 160 375L317 375L317 295L49 295Z"  horiz-adv-x="360" vert-adv-y="1000"  />

      
      <glyph glyph-name="unib3" unicode="&#xb3;" d="M30 327L74 395Q114 363 162 363Q216 363 216 404Q216 446 150 446Q124 446 101 439L85 474L191 558L58 558L58 637L298 637L298 561L221 500Q312 483 312 394Q312 346 271.50 315.50Q231 285 163 285Q84 285 30 327Z"  horiz-adv-x="360" vert-adv-y="1000"  />

      
      <glyph glyph-name="unib4" unicode="&#xb4;" d="M211 540L259 682L385 682L306 540L211 540Z"  horiz-adv-x="502" vert-adv-y="1000"  />

      
      <glyph glyph-name="unib5" unicode="&#xb5;" d="M59-200L59 469L177 469L177 185Q177 141 201 116Q225 91 265 91Q314 91 346 124.50Q378 158 378 210L378 469L496 469L496 0L383 0L380 48Q328-10 253-10Q216-10 177 14L177-200L59-200Z"  horiz-adv-x="551" vert-adv-y="1000"  />

      
      <glyph glyph-name="unib6" unicode="&#xb6;" d="M362-122L362 667L484 667L484-122L362-122M303 299L273 299Q38 299 38 483Q38 667 273 667L303 667L303 299M183-122L183 255Q217 245 273 245L303 245L303-122L183-122Z"  horiz-adv-x="557" vert-adv-y="1000"  />

      
      <glyph glyph-name="unib7" unicode="&#xb7;" d="M68 254L68 392L211 392L211 254L68 254Z"  horiz-adv-x="279" vert-adv-y="1000"  />

      
      <glyph glyph-name="unib8" unicode="&#xb8;" d="M92-198L105-131Q138-143 174-143Q232-143 232-111Q232-81 178-81Q142-81 115-92L126-25Q167-13 210-13Q263-13 294-38.50Q325-64 325-106Q325-156 286.50-184Q248-212 194-212Q152-212 119-205Q100-202 92-198Z"  horiz-adv-x="705" vert-adv-y="1000"  />

      
      <glyph glyph-name="unib9" unicode="&#xb9;" d="M173 295L173 533L95 494L59 566L185 637L271 637L271 295L173 295Z"  horiz-adv-x="360" vert-adv-y="1000"  />

      
      <glyph glyph-name="uniba" unicode="&#xba;" d="M90.50 361.50Q90.50 361.50 66.75 385.25Q43 409 43 481Q43 553 90.50 600.50Q138 648 212 648Q285 648 332.50 600.50Q380 553 380 481Q380 409 332.50 361.50Q285 314 212 314Q138 314 90.50 361.50M155 419Q155 419 165 406.50Q175 394 212 394Q249 394 268.50 419Q288 444 288 481Q288 518 268.50 543Q249 568 212 568Q175 568 155 543Q135 518 135 481Q135 444 155 419Z"  horiz-adv-x="423" vert-adv-y="1000"  />

      
      <glyph glyph-name="unibb" unicode="&#xbb;" d="M63 47L162 241L63 435L178 435L282 241L178 47L63 47M259 47L358 241L259 435L374 435L478 241L374 47L259 47Z"  horiz-adv-x="536" vert-adv-y="1000"  />

      
      <glyph glyph-name="unibc" unicode="&#xbc;" d="M200 295L200 533L122 494L86 566L212 637L298 637L298 295L200 295M210 0L616 630L723 630L317 0L210 0M535 61L535 132L707 343L803 343L803 132L844 132L844 61L803 61L803 1L716 1L716 61L535 61M613 132L716 132L716 254L613 132Z"  horiz-adv-x="925" vert-adv-y="1000"  />

      
      <glyph glyph-name="unibd" unicode="&#xbd;" d="M180 295L180 533L102 494L66 566L192 637L278 637L278 295L180 295M190 0L596 630L703 630L297 0L190 0M591 1L591 46Q591 81 617 112Q643 143 674 161Q705 179 731 199.50Q757 220 757 237Q757 270 718 270Q677 270 621 235L585 305Q654 353 730 353Q793 353 825.50 323.50Q858 294 858 247Q858 204 832 176.50Q806 149 763 124.50Q720 100 702 81L859 81L859 1L591 1Z"  horiz-adv-x="925" vert-adv-y="1000"  />

      
      <glyph glyph-name="unibe" unicode="&#xbe;" d="M70 327L114 395Q154 363 202 363Q256 363 256 404Q256 446 190 446Q164 446 141 439L125 474L231 558L98 558L98 637L338 637L338 561L261 500Q352 483 352 394Q352 346 311.50 315.50Q271 285 203 285Q124 285 70 327M228 0L634 630L741 630L335 0L228 0M553 61L553 132L725 343L821 343L821 132L862 132L862 61L821 61L821 1L734 1L734 61L553 61M631 132L734 132L734 254L631 132Z"  horiz-adv-x="925" vert-adv-y="1000"  />

      
      <glyph glyph-name="unibf" unicode="&#xbf;" d="M229 331L229 469L372 469L372 331L229 331M411-47L489-117Q481-128 468-140.50Q455-153 429-172Q403-191 362.50-203Q322-215 274-215Q180-215 124-164.50Q68-114 68-42Q68 12 88.50 47Q109 82 156 116Q192 142 205.50 153.50Q219 165 230 186.50Q241 208 241 238L241 260L361 260L361 238Q361 188 345 145.50Q329 103 278 67Q251 49 234.50 36Q218 23 203 2Q188-19 188-39Q188-70 211.50-89Q235-108 275-108Q350-108 411-47Z"  horiz-adv-x="512" vert-adv-y="1000"  />

      
      <glyph glyph-name="unic0" unicode="&#xc0;" d="M5 0L258 667L388 667L641 0L501 0L443 169L195 169L137 0L5 0M230 273L407 273L319 532L230 273M293 717L179 873L325 873L398 717L293 717Z"  horiz-adv-x="646" vert-adv-y="1000"  />

      
      <glyph glyph-name="unic1" unicode="&#xc1;" d="M5 0L258 667L388 667L641 0L501 0L443 169L195 169L137 0L5 0M230 273L407 273L319 532L230 273M265 717L338 873L484 873L370 717L265 717Z"  horiz-adv-x="646" vert-adv-y="1000"  />

      
      <glyph glyph-name="unic2" unicode="&#xc2;" d="M5 0L258 667L388 667L641 0L501 0L443 169L195 169L137 0L5 0M230 273L407 273L319 532L230 273M157 717L267 873L378 873L488 717L384 717L322 799L261 717L157 717Z"  horiz-adv-x="646" vert-adv-y="1000"  />

      
      <glyph glyph-name="unic3" unicode="&#xc3;" d="M5 0L258 667L388 667L641 0L501 0L443 169L195 169L137 0L5 0M230 273L407 273L319 532L230 273M170 729L121 804Q182 865 249 865Q279 865 317.50 844Q356 823 384 823Q429 823 476 860L525 785Q462 722 398 722Q369 722 329.50 744Q290 766 262 766Q217 766 170 729Z"  horiz-adv-x="646" vert-adv-y="1000"  />

      
      <glyph glyph-name="unic4" unicode="&#xc4;" d="M5 0L258 667L388 667L641 0L501 0L443 169L195 169L137 0L5 0M230 273L407 273L319 532L230 273M367 737L367 854L490 854L490 737L367 737M154 737L154 854L277 854L277 737L154 737Z"  horiz-adv-x="646" vert-adv-y="1000"  />

      
      <glyph glyph-name="unic5" unicode="&#xc5;" d="M5 0L251 649Q193 687 193 756Q193 812 231 848Q269 884 324 884Q380 884 418 848Q456 812 456 757Q456 686 395 648L641 0L501 0L443 169L195 169L137 0L5 0M230 273L407 273L319 532L230 273M325 704Q348 704 361.50 718.50Q375 733 375 757Q375 781 361.50 795Q348 809 324 809Q301 809 287.50 794.50Q274 780 274 756Q274 732 287.50 718Q301 704 325 704Z"  horiz-adv-x="646" vert-adv-y="1000"  />

      
      <glyph glyph-name="unic6" unicode="&#xc6;" d="M0 0L383 667L888 667L888 556L580 556L580 399L807 399L807 287L580 287L580 113L911 113L911 0L456 0L456 169L226 169L129 0L0 0M285 272L456 272L456 570L285 272Z"  horiz-adv-x="954" vert-adv-y="1000"  />

      
      <glyph glyph-name="unic7" unicode="&#xc7;" d="M569 198L657 122Q623 70 547 27Q471-16 383-16Q234-16 139 82Q44 180 44 330Q44 478 140.50 580.50Q237 683 387 683Q562 683 657 549L568 470Q496 572 387 572Q292 572 234 502.50Q176 433 176 333Q176 235 233 169Q290 103 381 103Q414 103 440.50 108.50Q467 114 489.50 128.50Q512 143 521.50 149.50Q531 156 550 177L569 198M251-217L264-148Q297-160 334-160Q390-160 390-130Q390-101 338-101Q301-101 274-112L285-44Q326-32 370-32Q424-32 455.50-57.50Q487-83 487-125Q487-175 447.50-203Q408-231 354-231Q312-231 279-224Q261-221 251-217Z"  horiz-adv-x="680" vert-adv-y="1000"  />

      
      <glyph glyph-name="unic8" unicode="&#xc8;" d="M70 0L70 667L502 667L502 556L196 556L196 399L421 399L421 287L196 287L196 113L525 113L525 0L70 0M264 717L150 873L296 873L369 717L264 717Z"  horiz-adv-x="568" vert-adv-y="1000"  />

      
      <glyph glyph-name="unic9" unicode="&#xc9;" d="M70 0L70 667L502 667L502 556L196 556L196 399L421 399L421 287L196 287L196 113L525 113L525 0L70 0M230 717L303 873L449 873L335 717L230 717Z"  horiz-adv-x="568" vert-adv-y="1000"  />

      
      <glyph glyph-name="unica" unicode="&#xca;" d="M70 0L70 667L502 667L502 556L196 556L196 399L421 399L421 287L196 287L196 113L525 113L525 0L70 0M120 717L230 873L341 873L451 717L347 717L285 799L224 717L120 717Z"  horiz-adv-x="568" vert-adv-y="1000"  />

      
      <glyph glyph-name="unicb" unicode="&#xcb;" d="M70 0L70 667L502 667L502 556L196 556L196 399L421 399L421 287L196 287L196 113L525 113L525 0L70 0M330 737L330 854L453 854L453 737L330 737M117 737L117 854L240 854L240 737L117 737Z"  horiz-adv-x="568" vert-adv-y="1000"  />

      
      <glyph glyph-name="unicc" unicode="&#xcc;" d="M70 0L70 667L196 667L196 0L70 0M92 717L-22 873L124 873L197 717L92 717Z"  horiz-adv-x="266" vert-adv-y="1000"  />

      
      <glyph glyph-name="unicd" unicode="&#xcd;" d="M70 0L70 667L196 667L196 0L70 0M70 717L143 873L289 873L175 717L70 717Z"  horiz-adv-x="266" vert-adv-y="1000"  />

      
      <glyph glyph-name="unice" unicode="&#xce;" d="M70 0L70 667L196 667L196 0L70 0M-32 717L78 873L189 873L299 717L195 717L133 799L72 717L-32 717Z"  horiz-adv-x="266" vert-adv-y="1000"  />

      
      <glyph glyph-name="unicf" unicode="&#xcf;" d="M70 0L70 667L196 667L196 0L70 0M178 737L178 854L301 854L301 737L178 737M-35 737L-35 854L88 854L88 737L-35 737Z"  horiz-adv-x="266" vert-adv-y="1000"  />

      
      <glyph glyph-name="unid0" unicode="&#xd0;" d="M70 0L70 287L3 287L3 389L70 389L70 667L319 667Q482 667 577.50 583Q673 499 673 330Q673 170 575.50 85Q478 0 318 0L70 0M196 113L310 113Q424 113 484 168Q544 223 544 329Q544 556 310 556L196 556L196 389L351 389L351 287L196 287L196 113Z"  horiz-adv-x="726" vert-adv-y="1000"  />

      
      <glyph glyph-name="unid1" unicode="&#xd1;" d="M70 0L70 667L197 667L520 193L520 667L643 667L643 0L519 0L193 480L193 0L70 0M183 729L134 804Q195 865 262 865Q292 865 330.50 844Q369 823 397 823Q442 823 489 860L538 785Q475 722 411 722Q382 722 342.50 744Q303 766 275 766Q230 766 183 729Z"  horiz-adv-x="713" vert-adv-y="1000"  />

      
      <glyph glyph-name="unid2" unicode="&#xd2;" d="M637 84.50Q637 84.50 586.50 33.25Q536-18 391-18Q246-18 145 84.50Q44 187 44 334Q44 481 144.50 583Q245 685 391 685Q536 685 637 582.50Q738 480 738 334Q738 187 637 84.50M235.50 170Q235.50 170 265.25 135.50Q295 101 391 101Q487 101 546.50 170Q606 239 606 337Q606 436 547 503.50Q488 571 391 571Q294 571 235 503.50Q176 436 176 337Q176 239 235.50 170M360 717L246 873L392 873L465 717L360 717Z"  horiz-adv-x="782" vert-adv-y="1000"  />

      
      <glyph glyph-name="unid3" unicode="&#xd3;" d="M637 84.50Q637 84.50 586.50 33.25Q536-18 391-18Q246-18 145 84.50Q44 187 44 334Q44 481 144.50 583Q245 685 391 685Q536 685 637 582.50Q738 480 738 334Q738 187 637 84.50M235.50 170Q235.50 170 265.25 135.50Q295 101 391 101Q487 101 546.50 170Q606 239 606 337Q606 436 547 503.50Q488 571 391 571Q294 571 235 503.50Q176 436 176 337Q176 239 235.50 170M328 717L401 873L547 873L433 717L328 717Z"  horiz-adv-x="782" vert-adv-y="1000"  />

      
      <glyph glyph-name="unid4" unicode="&#xd4;" d="M637 84.50Q637 84.50 586.50 33.25Q536-18 391-18Q246-18 145 84.50Q44 187 44 334Q44 481 144.50 583Q245 685 391 685Q536 685 637 582.50Q738 480 738 334Q738 187 637 84.50M235.50 170Q235.50 170 265.25 135.50Q295 101 391 101Q487 101 546.50 170Q606 239 606 337Q606 436 547 503.50Q488 571 391 571Q294 571 235 503.50Q176 436 176 337Q176 239 235.50 170M226 717L336 873L447 873L557 717L453 717L391 799L330 717L226 717Z"  horiz-adv-x="782" vert-adv-y="1000"  />

      
      <glyph glyph-name="unid5" unicode="&#xd5;" d="M637 84.50Q637 84.50 586.50 33.25Q536-18 391-18Q246-18 145 84.50Q44 187 44 334Q44 481 144.50 583Q245 685 391 685Q536 685 637 582.50Q738 480 738 334Q738 187 637 84.50M235.50 170Q235.50 170 265.25 135.50Q295 101 391 101Q487 101 546.50 170Q606 239 606 337Q606 436 547 503.50Q488 571 391 571Q294 571 235 503.50Q176 436 176 337Q176 239 235.50 170M239 729L190 804Q251 865 318 865Q348 865 386.50 844Q425 823 453 823Q498 823 545 860L594 785Q531 722 467 722Q438 722 398.50 744Q359 766 331 766Q286 766 239 729Z"  horiz-adv-x="782" vert-adv-y="1000"  />

      
      <glyph glyph-name="unid6" unicode="&#xd6;" d="M637 84.50Q637 84.50 586.50 33.25Q536-18 391-18Q246-18 145 84.50Q44 187 44 334Q44 481 144.50 583Q245 685 391 685Q536 685 637 582.50Q738 480 738 334Q738 187 637 84.50M235.50 170Q235.50 170 265.25 135.50Q295 101 391 101Q487 101 546.50 170Q606 239 606 337Q606 436 547 503.50Q488 571 391 571Q294 571 235 503.50Q176 436 176 337Q176 239 235.50 170M436 737L436 854L559 854L559 737L436 737M223 737L223 854L346 854L346 737L223 737Z"  horiz-adv-x="782" vert-adv-y="1000"  />

      
      <glyph glyph-name="unid7" unicode="&#xd7;" d="M91 208L204 321L93 433L162 502L274 391L387 504L455 435L342 322L453 211L384 142L273 253L160 140L91 208Z"  horiz-adv-x="545" vert-adv-y="1000"  />

      
      <glyph glyph-name="unid8" unicode="&#xd8;" d="M80-11L146 84Q44 186 44 334Q44 481 144.50 583Q245 685 391 685Q472 685 541 651L599 733L688 677L628 591Q738 487 738 334Q738 187 637 84.50Q536-18 391-18Q308-18 230 21L169-67L80-11M557 490L300 121Q342 101 391 101Q487 101 546.50 170Q606 239 606 337Q606 422 557 490M220 189L474 555Q435 571 391 571Q294 571 235 503.50Q176 436 176 337Q176 251 220 189Z"  horiz-adv-x="782" vert-adv-y="1000"  />

      
      <glyph glyph-name="unid9" unicode="&#xd9;" d="M65 246L65 667L191 667L191 268Q191 188 225 145.50Q259 103 337 103Q415 103 449 145.50Q483 188 483 268L483 667L609 667L609 246Q609 131 536 56.50Q463-18 337-18Q211-18 138 56.50Q65 131 65 246M313 717L199 873L345 873L418 717L313 717Z"  horiz-adv-x="674" vert-adv-y="1000"  />

      
      <glyph glyph-name="unida" unicode="&#xda;" d="M65 246L65 667L191 667L191 268Q191 188 225 145.50Q259 103 337 103Q415 103 449 145.50Q483 188 483 268L483 667L609 667L609 246Q609 131 536 56.50Q463-18 337-18Q211-18 138 56.50Q65 131 65 246M278 717L351 873L497 873L383 717L278 717Z"  horiz-adv-x="674" vert-adv-y="1000"  />

      
      <glyph glyph-name="unidb" unicode="&#xdb;" d="M65 246L65 667L191 667L191 268Q191 188 225 145.50Q259 103 337 103Q415 103 449 145.50Q483 188 483 268L483 667L609 667L609 246Q609 131 536 56.50Q463-18 337-18Q211-18 138 56.50Q65 131 65 246M173 717L283 873L394 873L504 717L400 717L338 799L277 717L173 717Z"  horiz-adv-x="674" vert-adv-y="1000"  />

      
      <glyph glyph-name="unidc" unicode="&#xdc;" d="M65 246L65 667L191 667L191 268Q191 188 225 145.50Q259 103 337 103Q415 103 449 145.50Q483 188 483 268L483 667L609 667L609 246Q609 131 536 56.50Q463-18 337-18Q211-18 138 56.50Q65 131 65 246M382 737L382 854L505 854L505 737L382 737M169 737L169 854L292 854L292 737L169 737Z"  horiz-adv-x="674" vert-adv-y="1000"  />

      
      <glyph glyph-name="unidd" unicode="&#xdd;" d="M236 0L236 293L5 667L143 667L303 401L463 667L595 667L364 293L364 0L236 0M248 717L321 873L467 873L353 717L248 717Z"  horiz-adv-x="600" vert-adv-y="1000"  />

      
      <glyph glyph-name="unide" unicode="&#xde;" d="M70 0L70 667L191 667L191 553L284 553Q350 553 398 532Q446 511 470 477.50Q494 444 504.50 411Q515 378 515 345Q515 291 495 249.50Q475 208 442.50 183.50Q410 159 371.50 146.50Q333 134 292 134L191 134L191 0L70 0M191 240L282 240Q330 240 358.50 268Q387 296 387 341Q387 388 357 417.50Q327 447 282 447L191 447L191 240Z"  horiz-adv-x="558" vert-adv-y="1000"  />

      
      <glyph glyph-name="unidf" unicode="&#xdf;" d="M58 0L58 474Q58 587 117.50 635.50Q177 684 287 684Q365 684 421 642Q477 600 477 532Q477 498 459.50 465.50Q442 433 421 413.50Q400 394 382.50 371.50Q365 349 365 333Q365 302 442 284Q506 269 537 235Q568 201 568 137Q568 68 519 28.50Q470-11 383-11Q282-11 217 46L288 128Q332 89 379 89Q419 89 436.50 98.50Q454 108 454 131Q454 155 438 169.50Q422 184 368 201Q340 210 323 217.50Q306 225 286.50 240Q267 255 258 278Q249 301 249 334Q249 369 275.50 404.50Q302 440 328.50 468Q355 496 355 514Q355 545 335 564Q315 583 275 583Q176 583 176 469L176 0L58 0Z"  horiz-adv-x="604" vert-adv-y="1000"  />

      
      <glyph glyph-name="unie0" unicode="&#xe0;" d="M338 0L335 44Q315 19 275.50 2Q236-15 190-15Q126-15 77 24.50Q28 64 28 137Q28 217 84 261Q140 305 234 305Q256 305 298 303L335 301L335 312Q335 347 307.50 367Q280 387 234 387Q165 387 101 346L47 426Q130 485 250 485Q339 485 393.50 438Q448 391 448 315L448 0L338 0M335 166L335 212L300 214Q262 216 244 216Q191 216 166 195Q141 174 141 142Q141 78 226 78Q268 78 301.50 104.50Q335 131 335 166M213 540L134 682L260 682L308 540L213 540Z"  horiz-adv-x="504" vert-adv-y="1000"  />

      
      <glyph glyph-name="unie1" unicode="&#xe1;" d="M199 540L247 682L373 682L294 540L199 540M338 0L335 44Q315 19 275.50 2Q236-15 190-15Q126-15 77 24.50Q28 64 28 137Q28 217 84 261Q140 305 234 305Q256 305 298 303L335 301L335 312Q335 347 307.50 367Q280 387 234 387Q165 387 101 346L47 426Q130 485 250 485Q339 485 393.50 438Q448 391 448 315L448 0L338 0M335 166L335 212L300 214Q262 216 244 216Q191 216 166 195Q141 174 141 142Q141 78 226 78Q268 78 301.50 104.50Q335 131 335 166Z"  horiz-adv-x="504" vert-adv-y="1000"  />

      
      <glyph glyph-name="unie2" unicode="&#xe2;" d="M84 540L188 682L299 682L403 540L299 540L243 616L188 540L84 540M338 0L335 44Q315 19 275.50 2Q236-15 190-15Q126-15 77 24.50Q28 64 28 137Q28 217 84 261Q140 305 234 305Q256 305 298 303L335 301L335 312Q335 347 307.50 367Q280 387 234 387Q165 387 101 346L47 426Q130 485 250 485Q339 485 393.50 438Q448 391 448 315L448 0L338 0M335 166L335 212L300 214Q262 216 244 216Q191 216 166 195Q141 174 141 142Q141 78 226 78Q268 78 301.50 104.50Q335 131 335 166Z"  horiz-adv-x="504" vert-adv-y="1000"  />

      
      <glyph glyph-name="unie3" unicode="&#xe3;" d="M338 0L335 44Q315 19 275.50 2Q236-15 190-15Q126-15 77 24.50Q28 64 28 137Q28 217 84 261Q140 305 234 305Q256 305 298 303L335 301L335 312Q335 347 307.50 367Q280 387 234 387Q165 387 101 346L47 426Q130 485 250 485Q339 485 393.50 438Q448 391 448 315L448 0L338 0M335 166L335 212L300 214Q262 216 244 216Q191 216 166 195Q141 174 141 142Q141 78 226 78Q268 78 301.50 104.50Q335 131 335 166M94 545L49 615Q69 637 101.50 655Q134 673 170 673Q198 673 235 652.50Q272 632 299 632Q312 632 323 634Q334 636 344.50 641Q355 646 360 649Q365 652 375.50 659.50Q386 667 387 668L432 598Q377 538 312 538Q284 538 246.50 559.50Q209 581 182 581Q169 581 158 579Q147 577 136.50 572Q126 567 121 564Q116 561 105.50 553.50Q95 546 94 545Z"  horiz-adv-x="504" vert-adv-y="1000"  />

      
      <glyph glyph-name="unie4" unicode="&#xe4;" d="M290 557L290 666L405 666L405 557L290 557M105 557L105 666L220 666L220 557L105 557M338 0L335 44Q315 19 275.50 2Q236-15 190-15Q126-15 77 24.50Q28 64 28 137Q28 217 84 261Q140 305 234 305Q256 305 298 303L335 301L335 312Q335 347 307.50 367Q280 387 234 387Q165 387 101 346L47 426Q130 485 250 485Q339 485 393.50 438Q448 391 448 315L448 0L338 0M335 166L335 212L300 214Q262 216 244 216Q191 216 166 195Q141 174 141 142Q141 78 226 78Q268 78 301.50 104.50Q335 131 335 166Z"  horiz-adv-x="504" vert-adv-y="1000"  />

      
      <glyph glyph-name="unie5" unicode="&#xe5;" d="M137 644Q137 692 171 724.50Q205 757 254 757Q303 757 337.50 724.50Q372 692 372 645Q372 597 338 564.50Q304 532 255 532Q206 532 171.50 564.50Q137 597 137 644M254 600Q273 600 285.50 612.50Q298 625 298 644Q298 662 285.50 674.50Q273 687 255 687Q236 687 223.50 674.50Q211 662 211 644Q211 625 223.50 612.50Q236 600 254 600M338 0L335 44Q315 19 275.50 2Q236-15 190-15Q126-15 77 24.50Q28 64 28 137Q28 217 84 261Q140 305 234 305Q256 305 298 303L335 301L335 312Q335 347 307.50 367Q280 387 234 387Q165 387 101 346L47 426Q130 485 250 485Q339 485 393.50 438Q448 391 448 315L448 0L338 0M335 166L335 212L300 214Q262 216 244 216Q191 216 166 195Q141 174 141 142Q141 78 226 78Q268 78 301.50 104.50Q335 131 335 166Z"  horiz-adv-x="504" vert-adv-y="1000"  />

      
      <glyph glyph-name="unie6" unicode="&#xe6;" d="M101 346L47 426Q123 485 242 485Q352 485 408 419Q466 485 567 485Q629 485 675.50 462Q722 439 747.50 399.50Q773 360 785.50 314Q798 268 798 216L798 199L448 199Q448 150 488.50 117.50Q529 85 578 85Q673 85 728 140L792 68L790 66Q715-16 577-16Q461-16 390 66Q354 22 311 3.50Q268-15 203-15Q129-15 78.50 24Q28 63 28 137Q28 215 83.50 255.50Q139 296 234 296Q250 296 274 295Q298 294 316 293Q334 292 335 292L335 312Q335 347 309 367Q283 387 240 387Q165 387 101 346M335 166L335 203Q332 203 296 205Q260 207 244 207Q192 207 165 189.50Q138 172 138 142Q138 112 161 95Q184 78 226 78Q274 78 304.50 103.50Q335 129 335 166M447 284L677 284Q677 323 647.50 354.50Q618 386 567 386Q513 386 480 354.50Q447 323 447 284Z"  horiz-adv-x="831" vert-adv-y="1000"  />

      
      <glyph glyph-name="unie7" unicode="&#xe7;" d="M401 138L471 62Q399-15 288-15Q170-15 103 53Q36 121 36 235Q36 339 107 412Q178 485 288 485Q401 485 472 409L397 333Q354 382 288 382Q223 382 189 339.50Q155 297 155 235Q155 176 189.50 132Q224 88 288 88Q357 88 401 138M150-217L163-150Q196-162 232-162Q290-162 290-130Q290-100 236-100Q200-100 173-111L184-44Q225-32 268-32Q321-32 352-57.50Q383-83 383-125Q383-175 344.50-203Q306-231 252-231Q210-231 177-224Q158-221 150-217Z"  horiz-adv-x="492" vert-adv-y="1000"  />

      
      <glyph glyph-name="unie8" unicode="&#xe8;" d="M435 140L499 68L497 66Q422-16 284-16Q172-16 104 55Q36 126 36 240Q36 345 103 415Q170 485 274 485Q336 485 382.50 462Q429 439 454.50 399.50Q480 360 492.50 314Q505 268 505 216L505 199L155 199Q155 150 195.50 117.50Q236 85 285 85Q380 85 435 140M154 284L384 284Q384 323 354.50 354.50Q325 386 274 386Q220 386 187 354.50Q154 323 154 284M238 540L159 682L285 682L333 540L238 540Z"  horiz-adv-x="538" vert-adv-y="1000"  />

      
      <glyph glyph-name="unie9" unicode="&#xe9;" d="M435 140L499 68L497 66Q422-16 284-16Q172-16 104 55Q36 126 36 240Q36 345 103 415Q170 485 274 485Q336 485 382.50 462Q429 439 454.50 399.50Q480 360 492.50 314Q505 268 505 216L505 199L155 199Q155 150 195.50 117.50Q236 85 285 85Q380 85 435 140M154 284L384 284Q384 323 354.50 354.50Q325 386 274 386Q220 386 187 354.50Q154 323 154 284M226 540L274 682L400 682L321 540L226 540Z"  horiz-adv-x="538" vert-adv-y="1000"  />

      
      <glyph glyph-name="uniea" unicode="&#xea;" d="M435 140L499 68L497 66Q422-16 284-16Q172-16 104 55Q36 126 36 240Q36 345 103 415Q170 485 274 485Q336 485 382.50 462Q429 439 454.50 399.50Q480 360 492.50 314Q505 268 505 216L505 199L155 199Q155 150 195.50 117.50Q236 85 285 85Q380 85 435 140M154 284L384 284Q384 323 354.50 354.50Q325 386 274 386Q220 386 187 354.50Q154 323 154 284M111 540L215 682L326 682L430 540L326 540L270 616L215 540L111 540Z"  horiz-adv-x="538" vert-adv-y="1000"  />

      
      <glyph glyph-name="unieb" unicode="&#xeb;" d="M435 140L499 68L497 66Q422-16 284-16Q172-16 104 55Q36 126 36 240Q36 345 103 415Q170 485 274 485Q336 485 382.50 462Q429 439 454.50 399.50Q480 360 492.50 314Q505 268 505 216L505 199L155 199Q155 150 195.50 117.50Q236 85 285 85Q380 85 435 140M154 284L384 284Q384 323 354.50 354.50Q325 386 274 386Q220 386 187 354.50Q154 323 154 284M305 557L305 666L420 666L420 557L305 557M120 557L120 666L235 666L235 557L120 557Z"  horiz-adv-x="538" vert-adv-y="1000"  />

      
      <glyph glyph-name="uniec" unicode="&#xec;" d="M75 540L-4 682L122 682L170 540L75 540M63 0L63 469L181 469L181 0L63 0Z"  horiz-adv-x="244" vert-adv-y="1000"  />

      
      <glyph glyph-name="unied" unicode="&#xed;" d="M74 540L122 682L248 682L169 540L74 540M63 0L63 469L181 469L181 0L63 0Z"  horiz-adv-x="244" vert-adv-y="1000"  />

      
      <glyph glyph-name="uniee" unicode="&#xee;" d="M-36 540L68 682L179 682L283 540L179 540L123 616L68 540L-36 540M63 0L63 469L181 469L181 0L63 0Z"  horiz-adv-x="244" vert-adv-y="1000"  />

      
      <glyph glyph-name="unief" unicode="&#xef;" d="M158 557L158 666L273 666L273 557L158 557M-27 557L-27 666L88 666L88 557L-27 557M63 0L63 469L181 469L181 0L63 0Z"  horiz-adv-x="244" vert-adv-y="1000"  />

      
      <glyph glyph-name="unif0" unicode="&#xf0;" d="M158 518L197 577Q161 586 117 589L131 677Q198 673 252 659L295 723L359 685L324 632Q519 539 519 270Q519 130 448.50 57Q378-16 269-16Q172-16 104 46.50Q36 109 36 220Q36 317 103 386.50Q170 456 271 456Q331 456 375 438Q343 511 269 550L222 480L158 518M393 328Q345 356 294 356Q232 356 193.50 319Q155 282 155 220Q155 160 189 123Q223 86 276 86Q327 86 364.50 132.50Q402 179 402 268Q402 301 393 328Z"  horiz-adv-x="555" vert-adv-y="1000"  />

      
      <glyph glyph-name="unif1" unicode="&#xf1;" d="M58 0L58 469L171 469L174 416Q232 479 315 479Q402 479 448.50 427.50Q495 376 495 285L495 0L377 0L377 284Q377 328 353 353Q329 378 289 378Q241 378 208.50 342Q176 306 176 254L176 0L58 0M132 545L87 615Q107 637 139.50 655Q172 673 208 673Q236 673 273 652.50Q310 632 337 632Q350 632 361 634Q372 636 382.50 641Q393 646 398 649Q403 652 413.50 659.50Q424 667 425 668L470 598Q415 538 350 538Q322 538 284.50 559.50Q247 581 220 581Q207 581 196 579Q185 577 174.50 572Q164 567 159 564Q154 561 143.50 553.50Q133 546 132 545Z"  horiz-adv-x="551" vert-adv-y="1000"  />

      
      <glyph glyph-name="unif2" unicode="&#xf2;" d="M107 57.50Q107 57.50 71.50 94.25Q36 131 36 235Q36 339 107 412Q178 485 288 485Q398 485 469 412Q540 339 540 235Q540 131 469 57.50Q398-16 288-16Q178-16 107 57.50M190 132Q190 132 207.50 109Q225 86 288 86Q351 86 386 132Q421 178 421 235Q421 292 386 337.50Q351 383 288 383Q225 383 190 337.50Q155 292 155 235Q155 178 190 132M253 540L174 682L300 682L348 540L253 540Z"  horiz-adv-x="576" vert-adv-y="1000"  />

      
      <glyph glyph-name="unif3" unicode="&#xf3;" d="M107 57.50Q107 57.50 71.50 94.25Q36 131 36 235Q36 339 107 412Q178 485 288 485Q398 485 469 412Q540 339 540 235Q540 131 469 57.50Q398-16 288-16Q178-16 107 57.50M190 132Q190 132 207.50 109Q225 86 288 86Q351 86 386 132Q421 178 421 235Q421 292 386 337.50Q351 383 288 383Q225 383 190 337.50Q155 292 155 235Q155 178 190 132M236 540L284 682L410 682L331 540L236 540Z"  horiz-adv-x="576" vert-adv-y="1000"  />

      
      <glyph glyph-name="unif4" unicode="&#xf4;" d="M107 57.50Q107 57.50 71.50 94.25Q36 131 36 235Q36 339 107 412Q178 485 288 485Q398 485 469 412Q540 339 540 235Q540 131 469 57.50Q398-16 288-16Q178-16 107 57.50M190 132Q190 132 207.50 109Q225 86 288 86Q351 86 386 132Q421 178 421 235Q421 292 386 337.50Q351 383 288 383Q225 383 190 337.50Q155 292 155 235Q155 178 190 132M129 540L233 682L344 682L448 540L344 540L288 616L233 540L129 540Z"  horiz-adv-x="576" vert-adv-y="1000"  />

      
      <glyph glyph-name="unif5" unicode="&#xf5;" d="M107 57.50Q107 57.50 71.50 94.25Q36 131 36 235Q36 339 107 412Q178 485 288 485Q398 485 469 412Q540 339 540 235Q540 131 469 57.50Q398-16 288-16Q178-16 107 57.50M190 132Q190 132 207.50 109Q225 86 288 86Q351 86 386 132Q421 178 421 235Q421 292 386 337.50Q351 383 288 383Q225 383 190 337.50Q155 292 155 235Q155 178 190 132M144 545L99 615Q119 637 151.50 655Q184 673 220 673Q248 673 285 652.50Q322 632 349 632Q362 632 373 634Q384 636 394.50 641Q405 646 410 649Q415 652 425.50 659.50Q436 667 437 668L482 598Q427 538 362 538Q334 538 296.50 559.50Q259 581 232 581Q219 581 208 579Q197 577 186.50 572Q176 567 171 564Q166 561 155.50 553.50Q145 546 144 545Z"  horiz-adv-x="576" vert-adv-y="1000"  />

      
      <glyph glyph-name="unif6" unicode="&#xf6;" d="M107 57.50Q107 57.50 71.50 94.25Q36 131 36 235Q36 339 107 412Q178 485 288 485Q398 485 469 412Q540 339 540 235Q540 131 469 57.50Q398-16 288-16Q178-16 107 57.50M190 132Q190 132 207.50 109Q225 86 288 86Q351 86 386 132Q421 178 421 235Q421 292 386 337.50Q351 383 288 383Q225 383 190 337.50Q155 292 155 235Q155 178 190 132M324 557L324 666L439 666L439 557L324 557M139 557L139 666L254 666L254 557L139 557Z"  horiz-adv-x="576" vert-adv-y="1000"  />

      
      <glyph glyph-name="unif7" unicode="&#xf7;" d="M72 272L72 371L470 371L470 272L72 272M218 114L218 214L324 214L324 114L218 114M218 430L218 530L324 530L324 430L218 430Z"  horiz-adv-x="543" vert-adv-y="1000"  />

      
      <glyph glyph-name="unif8" unicode="&#xf8;" d="M66-13L111 53Q36 126 36 235Q36 339 107 412Q178 485 288 485Q344 485 395 462L442 530L515 485L466 414Q540 340 540 235Q540 131 469 57.50Q398-16 288-16Q232-16 182 5L138-58L66-13M178 149L334 375Q310 383 288 383Q225 383 190 337.50Q155 292 155 235Q155 188 178 149M399 318L243 93Q260 86 288 86Q351 86 386 132Q421 178 421 235Q421 278 399 318Z"  horiz-adv-x="576" vert-adv-y="1000"  />

      
      <glyph glyph-name="unif9" unicode="&#xf9;" d="M56 184L56 469L174 469L174 185Q174 141 198 116Q222 91 262 91Q310 91 342.50 127Q375 163 375 215L375 469L493 469L493 0L380 0L377 53Q321-10 236-10Q149-10 102.50 41.50Q56 93 56 184M238 540L159 682L285 682L333 540L238 540Z"  horiz-adv-x="551" vert-adv-y="1000"  />

      
      <glyph glyph-name="unifa" unicode="&#xfa;" d="M56 184L56 469L174 469L174 185Q174 141 198 116Q222 91 262 91Q310 91 342.50 127Q375 163 375 215L375 469L493 469L493 0L380 0L377 53Q321-10 236-10Q149-10 102.50 41.50Q56 93 56 184M222 540L270 682L396 682L317 540L222 540Z"  horiz-adv-x="551" vert-adv-y="1000"  />

      
      <glyph glyph-name="unifb" unicode="&#xfb;" d="M56 184L56 469L174 469L174 185Q174 141 198 116Q222 91 262 91Q310 91 342.50 127Q375 163 375 215L375 469L493 469L493 0L380 0L377 53Q321-10 236-10Q149-10 102.50 41.50Q56 93 56 184M117 540L221 682L332 682L436 540L332 540L276 616L221 540L117 540Z"  horiz-adv-x="551" vert-adv-y="1000"  />

      
      <glyph glyph-name="unifc" unicode="&#xfc;" d="M56 184L56 469L174 469L174 185Q174 141 198 116Q222 91 262 91Q310 91 342.50 127Q375 163 375 215L375 469L493 469L493 0L380 0L377 53Q321-10 236-10Q149-10 102.50 41.50Q56 93 56 184M315 557L315 666L430 666L430 557L315 557M130 557L130 666L245 666L245 557L130 557Z"  horiz-adv-x="551" vert-adv-y="1000"  />

      
      <glyph glyph-name="unifd" unicode="&#xfd;" d="M24-176L77-93Q104-116 129-116Q152-116 167.50-97.50Q183-79 201-34L216 4L5 469L141 469L275 148L393 469L522 469L326 0Q323-9 311-40Q299-71 293.50-83Q288-95 275-121Q262-147 250.50-158.50Q239-170 222-185Q205-200 183.50-206Q162-212 137-212Q66-212 24-176M222 540L270 682L396 682L317 540L222 540Z"  horiz-adv-x="527" vert-adv-y="1000"  />

      
      <glyph glyph-name="unife" unicode="&#xfe;" d="M58-202L58 667L175 667L175 421Q196 444 235 461Q274 478 324 478Q426 478 480.50 407.50Q535 337 535 236Q535 137 479 69Q409-16 294-16Q283-16 272.50-15.50Q262-15 254.50-14Q247-13 238-11.50Q229-10 224.50-8.50Q220-7 211.50-4.50Q203-2 200-0.50Q197 1 187.50 4.50Q178 8 175 9L175-202L58-202M175 254L175 115Q210 86 281 86Q343 86 379.50 129.50Q416 173 416 236Q416 376 294 376Q243 376 209 336.50Q175 297 175 254Z"  horiz-adv-x="571" vert-adv-y="1000"  />

      
      <glyph glyph-name="uniff" unicode="&#xff;" d="M24-176L77-93Q104-116 129-116Q152-116 167.50-97.50Q183-79 201-34L216 4L5 469L141 469L275 148L393 469L522 469L326 0Q323-9 311-40Q299-71 293.50-83Q288-95 275-121Q262-147 250.50-158.50Q239-170 222-185Q205-200 183.50-206Q162-212 137-212Q66-212 24-176M304 557L304 666L419 666L419 557L304 557M119 557L119 666L234 666L234 557L119 557Z"  horiz-adv-x="527" vert-adv-y="1000"  />

      
      <glyph glyph-name="uni0100" unicode="&#x0100;" d="M5 0L258 667L388 667L641 0L501 0L443 169L195 169L137 0L5 0M230 273L407 273L319 532L230 273M166 747L166 844L481 844L481 747L166 747Z"  horiz-adv-x="646" vert-adv-y="1000"  />

      
      <glyph glyph-name="uni0101" unicode="&#x0101;" d="M128 558L128 650L389 650L389 558L128 558M338 0L335 44Q315 19 275.50 2Q236-15 190-15Q126-15 77 24.50Q28 64 28 137Q28 217 84 261Q140 305 234 305Q256 305 298 303L335 301L335 312Q335 347 307.50 367Q280 387 234 387Q165 387 101 346L47 426Q130 485 250 485Q339 485 393.50 438Q448 391 448 315L448 0L338 0M335 166L335 212L300 214Q262 216 244 216Q191 216 166 195Q141 174 141 142Q141 78 226 78Q268 78 301.50 104.50Q335 131 335 166Z"  horiz-adv-x="504" vert-adv-y="1000"  />

      
      <glyph glyph-name="uni0102" unicode="&#x0102;" d="M5 0L258 667L388 667L641 0L501 0L443 169L195 169L137 0L5 0M230 273L407 273L319 532L230 273M162 863L255 863Q255 835 273 815.50Q291 796 322 796Q353 796 371 815.50Q389 835 389 863L482 863Q482 801 440.50 757.50Q399 714 322 714Q245 714 203.50 757.50Q162 801 162 863Z"  horiz-adv-x="646" vert-adv-y="1000"  />

      
      <glyph glyph-name="uni0103" unicode="&#x0103;" d="M89 682L181 682Q181 655 195.50 636Q210 617 243 617Q276 617 290.50 636Q305 655 305 682L397 682Q397 624 356 582Q315 540 243 540Q171 540 130 582Q89 624 89 682M338 0L335 44Q315 19 275.50 2Q236-15 190-15Q126-15 77 24.50Q28 64 28 137Q28 217 84 261Q140 305 234 305Q256 305 298 303L335 301L335 312Q335 347 307.50 367Q280 387 234 387Q165 387 101 346L47 426Q130 485 250 485Q339 485 393.50 438Q448 391 448 315L448 0L338 0M335 166L335 212L300 214Q262 216 244 216Q191 216 166 195Q141 174 141 142Q141 78 226 78Q268 78 301.50 104.50Q335 131 335 166Z"  horiz-adv-x="504" vert-adv-y="1000"  />

      
      <glyph glyph-name="uni0104" unicode="&#x0104;" d="M5 0L258 667L388 667L641 0Q594-47 594-82Q594-103 620-103Q645-103 670-86L699-161Q643-198 586-198Q536-198 510.50-176.50Q485-155 485-118Q485-65 548 0L501 0L443 169L195 169L137 0L5 0M230 273L407 273L319 532L230 273Z"  horiz-adv-x="646" vert-adv-y="1000"  />

      
      <glyph glyph-name="uni0105" unicode="&#x0105;" d="M338 0L335 44Q315 19 275.50 2Q236-15 190-15Q126-15 77 24.50Q28 64 28 137Q28 217 84 261Q140 305 234 305Q256 305 298 303L335 301L335 312Q335 347 307.50 367Q280 387 234 387Q165 387 101 346L47 426Q130 485 250 485Q339 485 393.50 438Q448 391 448 315L448 0Q396-50 396-80Q396-101 421-101Q447-101 476-82L504-156Q452-192 394-192Q296-192 296-114Q296-65 357 0L338 0M335 166L335 212L300 214Q262 216 244 216Q191 216 166 195Q141 174 141 142Q141 78 226 78Q268 78 301.50 104.50Q335 131 335 166Z"  horiz-adv-x="504" vert-adv-y="1000"  />

      
      <glyph glyph-name="uni0106" unicode="&#x0106;" d="M569 198L657 122Q623 70 547 27Q471-16 383-16Q234-16 139 82Q44 180 44 330Q44 478 140.50 580.50Q237 683 387 683Q562 683 657 549L568 470Q496 572 387 572Q292 572 234 502.50Q176 433 176 333Q176 235 233 169Q290 103 381 103Q414 103 440.50 108.50Q467 114 489.50 128.50Q512 143 521.50 149.50Q531 156 550 177L569 198M319 717L392 873L538 873L424 717L319 717Z"  horiz-adv-x="680" vert-adv-y="1000"  />

      
      <glyph glyph-name="uni0107" unicode="&#x0107;" d="M401 138L471 62Q399-15 288-15Q170-15 103 53Q36 121 36 235Q36 339 107 412Q178 485 288 485Q401 485 472 409L397 333Q354 382 288 382Q223 382 189 339.50Q155 297 155 235Q155 176 189.50 132Q224 88 288 88Q357 88 401 138M226 540L274 682L400 682L321 540L226 540Z"  horiz-adv-x="492" vert-adv-y="1000"  />

      
      <glyph glyph-name="uni0108" unicode="&#x0108;" d="M569 198L657 122Q623 70 547 27Q471-16 383-16Q234-16 139 82Q44 180 44 330Q44 478 140.50 580.50Q237 683 387 683Q562 683 657 549L568 470Q496 572 387 572Q292 572 234 502.50Q176 433 176 333Q176 235 233 169Q290 103 381 103Q414 103 440.50 108.50Q467 114 489.50 128.50Q512 143 521.50 149.50Q531 156 550 177L569 198M222 717L332 873L443 873L553 717L449 717L387 799L326 717L222 717Z"  horiz-adv-x="680" vert-adv-y="1000"  />

      
      <glyph glyph-name="uni0109" unicode="&#x0109;" d="M401 138L471 62Q399-15 288-15Q170-15 103 53Q36 121 36 235Q36 339 107 412Q178 485 288 485Q401 485 472 409L397 333Q354 382 288 382Q223 382 189 339.50Q155 297 155 235Q155 176 189.50 132Q224 88 288 88Q357 88 401 138M127 540L231 682L342 682L446 540L342 540L286 616L231 540L127 540Z"  horiz-adv-x="492" vert-adv-y="1000"  />

      
      <glyph glyph-name="uni010A" unicode="&#x010A;" d="M569 198L657 122Q623 70 547 27Q471-16 383-16Q234-16 139 82Q44 180 44 330Q44 478 140.50 580.50Q237 683 387 683Q562 683 657 549L568 470Q496 572 387 572Q292 572 234 502.50Q176 433 176 333Q176 235 233 169Q290 103 381 103Q414 103 440.50 108.50Q467 114 489.50 128.50Q512 143 521.50 149.50Q531 156 550 177L569 198M314 734L314 857L443 857L443 734L314 734Z"  horiz-adv-x="680" vert-adv-y="1000"  />

      
      <glyph glyph-name="uni010B" unicode="&#x010B;" d="M401 138L471 62Q399-15 288-15Q170-15 103 53Q36 121 36 235Q36 339 107 412Q178 485 288 485Q401 485 472 409L397 333Q354 382 288 382Q223 382 189 339.50Q155 297 155 235Q155 176 189.50 132Q224 88 288 88Q357 88 401 138M222 553L222 670L345 670L345 553L222 553Z"  horiz-adv-x="492" vert-adv-y="1000"  />

      
      <glyph glyph-name="uni010C" unicode="&#x010C;" d="M569 198L657 122Q623 70 547 27Q471-16 383-16Q234-16 139 82Q44 180 44 330Q44 478 140.50 580.50Q237 683 387 683Q562 683 657 549L568 470Q496 572 387 572Q292 572 234 502.50Q176 433 176 333Q176 235 233 169Q290 103 381 103Q414 103 440.50 108.50Q467 114 489.50 128.50Q512 143 521.50 149.50Q531 156 550 177L569 198M334 717L224 873L328 873L390 791L451 873L555 873L445 717L334 717Z"  horiz-adv-x="680" vert-adv-y="1000"  />

      
      <glyph glyph-name="uni010D" unicode="&#x010D;" d="M401 138L471 62Q399-15 288-15Q170-15 103 53Q36 121 36 235Q36 339 107 412Q178 485 288 485Q401 485 472 409L397 333Q354 382 288 382Q223 382 189 339.50Q155 297 155 235Q155 176 189.50 132Q224 88 288 88Q357 88 401 138M228 540L124 682L228 682L284 606L339 682L443 682L339 540L228 540Z"  horiz-adv-x="492" vert-adv-y="1000"  />

      
      <glyph glyph-name="uni010E" unicode="&#x010E;" d="M70 0L70 667L319 667Q482 667 577.50 583Q673 499 673 330Q673 170 575.50 85Q478 0 318 0L70 0M196 112L307 112Q421 112 481 167Q541 222 541 328Q541 555 307 555L196 555L196 112M265 717L155 873L259 873L321 791L382 873L486 873L376 717L265 717Z"  horiz-adv-x="726" vert-adv-y="1000"  />

      
      <glyph glyph-name="uni010F" unicode="&#x010F;" d="M385 0L382 46Q327-16 242-16Q161-16 98.50 50Q36 116 36 226Q36 325 92 393Q128 436 179.50 457.50Q231 479 272 479Q301 479 322 475.50Q343 472 350 470Q357 468 382 458L382 667L499 667L499 0L385 0M382 208L382 352Q352 377 285 377Q226 377 187 328Q155 285 155 226Q155 164 186 125Q217 86 272 86Q327 86 354.50 123.50Q382 161 382 208M560 498L560 667L670 667L636 498L560 498Z"  horiz-adv-x="557" vert-adv-y="1000"  />

      
      <glyph glyph-name="uni0110" unicode="&#x0110;" d="M70 0L70 287L3 287L3 389L70 389L70 667L319 667Q482 667 577.50 583Q673 499 673 330Q673 170 575.50 85Q478 0 318 0L70 0M196 113L310 113Q424 113 484 168Q544 223 544 329Q544 556 310 556L196 556L196 389L351 389L351 287L196 287L196 113Z"  horiz-adv-x="726" vert-adv-y="1000"  />

      
      <glyph glyph-name="uni0111" unicode="&#x0111;" d="M373 0L373 46Q318-16 233-16Q151-16 89 46Q27 108 27 218Q27 309 83 377Q119 420 169.50 439Q220 458 263 458Q292 458 313 454.50Q334 451 341 449Q348 447 373 437L373 522L202 522L202 601L373 601L373 667L490 667L490 601L546 601L546 522L490 522L490 0L373 0M373 208L373 331Q335 356 276 356Q213 356 178 312Q146 269 146 218Q146 157 176.50 121.50Q207 86 263 86Q318 86 345.50 123.50Q373 161 373 208Z"  horiz-adv-x="548" vert-adv-y="1000"  />

      
      <glyph glyph-name="uni0112" unicode="&#x0112;" d="M70 0L70 667L502 667L502 556L196 556L196 399L421 399L421 287L196 287L196 113L525 113L525 0L70 0M134 747L134 844L449 844L449 747L134 747Z"  horiz-adv-x="568" vert-adv-y="1000"  />

      
      <glyph glyph-name="uni0113" unicode="&#x0113;" d="M435 140L499 68L497 66Q422-16 284-16Q172-16 104 55Q36 126 36 240Q36 345 103 415Q170 485 274 485Q336 485 382.50 462Q429 439 454.50 399.50Q480 360 492.50 314Q505 268 505 216L505 199L155 199Q155 150 195.50 117.50Q236 85 285 85Q380 85 435 140M154 284L384 284Q384 323 354.50 354.50Q325 386 274 386Q220 386 187 354.50Q154 323 154 284M142 557L142 649L403 649L403 557L142 557Z"  horiz-adv-x="538" vert-adv-y="1000"  />

      
      <glyph glyph-name="uni0114" unicode="&#x0114;" d="M70 0L70 667L502 667L502 556L196 556L196 399L421 399L421 287L196 287L196 113L525 113L525 0L70 0M130 863L223 863Q223 835 241 815.50Q259 796 290 796Q321 796 339 815.50Q357 835 357 863L450 863Q450 801 408.50 757.50Q367 714 290 714Q213 714 171.50 757.50Q130 801 130 863Z"  horiz-adv-x="568" vert-adv-y="1000"  />

      
      <glyph glyph-name="uni0115" unicode="&#x0115;" d="M435 140L499 68L497 66Q422-16 284-16Q172-16 104 55Q36 126 36 240Q36 345 103 415Q170 485 274 485Q336 485 382.50 462Q429 439 454.50 399.50Q480 360 492.50 314Q505 268 505 216L505 199L155 199Q155 150 195.50 117.50Q236 85 285 85Q380 85 435 140M154 284L384 284Q384 323 354.50 354.50Q325 386 274 386Q220 386 187 354.50Q154 323 154 284M124 682L216 682Q216 655 230.50 636Q245 617 278 617Q311 617 325.50 636Q340 655 340 682L432 682Q432 624 391 582Q350 540 278 540Q206 540 165 582Q124 624 124 682Z"  horiz-adv-x="538" vert-adv-y="1000"  />

      
      <glyph glyph-name="uni0116" unicode="&#x0116;" d="M70 0L70 667L502 667L502 556L196 556L196 399L421 399L421 287L196 287L196 113L525 113L525 0L70 0M230 734L230 857L359 857L359 734L230 734Z"  horiz-adv-x="568" vert-adv-y="1000"  />

      
      <glyph glyph-name="uni0117" unicode="&#x0117;" d="M435 140L499 68L497 66Q422-16 284-16Q172-16 104 55Q36 126 36 240Q36 345 103 415Q170 485 274 485Q336 485 382.50 462Q429 439 454.50 399.50Q480 360 492.50 314Q505 268 505 216L505 199L155 199Q155 150 195.50 117.50Q236 85 285 85Q380 85 435 140M154 284L384 284Q384 323 354.50 354.50Q325 386 274 386Q220 386 187 354.50Q154 323 154 284M215 553L215 670L338 670L338 553L215 553Z"  horiz-adv-x="538" vert-adv-y="1000"  />

      
      <glyph glyph-name="uni0118" unicode="&#x0118;" d="M70 0L70 667L502 667L502 556L196 556L196 399L421 399L421 287L196 287L196 113L525 113L525 0L467 0Q420-47 420-82Q420-103 446-103Q471-103 496-86L525-161Q469-198 412-198Q362-198 336.50-176.50Q311-155 311-118Q311-65 374 0L70 0Z"  horiz-adv-x="568" vert-adv-y="1000"  />

      
      <glyph glyph-name="uni0119" unicode="&#x0119;" d="M445-82L473-156Q421-192 363-192Q265-192 265-114Q265-69 312-15Q308-15 298-15.50Q288-16 284-16Q174-16 105 58Q36 132 36 240Q36 344 104 414.50Q172 485 276 485Q334 485 379.50 462Q425 439 451.50 400Q478 361 491.50 314Q505 267 505 216L505 199L155 199Q155 150 195.50 117.50Q236 85 285 85Q380 85 435 140L499 68Q485 54 441 21Q365-36 365-80Q365-101 390-101Q416-101 445-82M154 284L387 284Q387 323 357.50 353.50Q328 384 277 384Q225 384 189.50 352.50Q154 321 154 284Z"  horiz-adv-x="538" vert-adv-y="1000"  />

      
      <glyph glyph-name="uni011A" unicode="&#x011A;" d="M70 0L70 667L502 667L502 556L196 556L196 399L421 399L421 287L196 287L196 113L525 113L525 0L70 0M240 717L130 873L234 873L296 791L357 873L461 873L351 717L240 717Z"  horiz-adv-x="568" vert-adv-y="1000"  />

      
      <glyph glyph-name="uni011B" unicode="&#x011B;" d="M435 140L499 68L497 66Q422-16 284-16Q172-16 104 55Q36 126 36 240Q36 345 103 415Q170 485 274 485Q336 485 382.50 462Q429 439 454.50 399.50Q480 360 492.50 314Q505 268 505 216L505 199L155 199Q155 150 195.50 117.50Q236 85 285 85Q380 85 435 140M154 284L384 284Q384 323 354.50 354.50Q325 386 274 386Q220 386 187 354.50Q154 323 154 284M219 540L115 682L219 682L275 606L330 682L434 682L330 540L219 540Z"  horiz-adv-x="538" vert-adv-y="1000"  />

      
      <glyph glyph-name="uni011C" unicode="&#x011C;" d="M421 246L421 353L660 353L660 77Q561-16 393-16Q233-16 138.50 82Q44 180 44 330Q44 478 140.50 580.50Q237 683 387 683Q562 683 657 549L568 470Q496 572 387 572Q292 572 234 502.50Q176 433 176 333Q176 228 240.50 163Q305 98 398 98Q490 98 540 142L540 246L421 246M215 717L325 873L436 873L546 717L442 717L380 799L319 717L215 717Z"  horiz-adv-x="723" vert-adv-y="1000"  />

      
      <glyph glyph-name="uni011D" unicode="&#x011D;" d="M81-163L134-76Q187-112 271-112Q318-112 348.50-83.50Q379-55 379-6L379 45Q326 0 251 0Q152 0 94 63.50Q36 127 36 228Q36 336 108.50 407.50Q181 479 301 479Q408 479 497 448L497-8Q497-104 434.50-158Q372-212 273-212Q145-212 81-163M379 199L379 367Q352 377 303 377Q235 377 195.50 334.50Q156 292 156 231Q156 174 184.50 138.50Q213 103 270 103Q379 103 379 199M128 540L232 682L343 682L447 540L343 540L287 616L232 540L128 540Z"  horiz-adv-x="555" vert-adv-y="1000"  />

      
      <glyph glyph-name="uni011E" unicode="&#x011E;" d="M421 246L421 353L660 353L660 77Q561-16 393-16Q233-16 138.50 82Q44 180 44 330Q44 478 140.50 580.50Q237 683 387 683Q562 683 657 549L568 470Q496 572 387 572Q292 572 234 502.50Q176 433 176 333Q176 228 240.50 163Q305 98 398 98Q490 98 540 142L540 246L421 246M219 863L312 863Q312 835 330 815.50Q348 796 379 796Q410 796 428 815.50Q446 835 446 863L539 863Q539 801 497.50 757.50Q456 714 379 714Q302 714 260.50 757.50Q219 801 219 863Z"  horiz-adv-x="723" vert-adv-y="1000"  />

      
      <glyph glyph-name="uni011F" unicode="&#x011F;" d="M81-163L134-76Q187-112 271-112Q318-112 348.50-83.50Q379-55 379-6L379 45Q326 0 251 0Q152 0 94 63.50Q36 127 36 228Q36 336 108.50 407.50Q181 479 301 479Q408 479 497 448L497-8Q497-104 434.50-158Q372-212 273-212Q145-212 81-163M379 199L379 367Q352 377 303 377Q235 377 195.50 334.50Q156 292 156 231Q156 174 184.50 138.50Q213 103 270 103Q379 103 379 199M145 682L237 682Q237 655 251.50 636Q266 617 299 617Q332 617 346.50 636Q361 655 361 682L453 682Q453 624 412 582Q371 540 299 540Q227 540 186 582Q145 624 145 682Z"  horiz-adv-x="555" vert-adv-y="1000"  />

      
      <glyph glyph-name="uni0120" unicode="&#x0120;" d="M421 246L421 353L660 353L660 77Q561-16 393-16Q233-16 138.50 82Q44 180 44 330Q44 478 140.50 580.50Q237 683 387 683Q562 683 657 549L568 470Q496 572 387 572Q292 572 234 502.50Q176 433 176 333Q176 228 240.50 163Q305 98 398 98Q490 98 540 142L540 246L421 246M318 734L318 857L447 857L447 734L318 734Z"  horiz-adv-x="723" vert-adv-y="1000"  />

      
      <glyph glyph-name="uni0121" unicode="&#x0121;" d="M81-163L134-76Q187-112 271-112Q318-112 348.50-83.50Q379-55 379-6L379 45Q326 0 251 0Q152 0 94 63.50Q36 127 36 228Q36 336 108.50 407.50Q181 479 301 479Q408 479 497 448L497-8Q497-104 434.50-158Q372-212 273-212Q145-212 81-163M379 199L379 367Q352 377 303 377Q235 377 195.50 334.50Q156 292 156 231Q156 174 184.50 138.50Q213 103 270 103Q379 103 379 199M238 553L238 670L361 670L361 553L238 553Z"  horiz-adv-x="555" vert-adv-y="1000"  />

      
      <glyph glyph-name="uni0122" unicode="&#x0122;" d="M421 246L421 353L660 353L660 77Q561-16 393-16Q233-16 138.50 82Q44 180 44 330Q44 478 140.50 580.50Q237 683 387 683Q562 683 657 549L568 470Q496 572 387 572Q292 572 234 502.50Q176 433 176 333Q176 228 240.50 163Q305 98 398 98Q490 98 540 142L540 246L421 246M267-209L320-51L459-51L371-209L267-209Z"  horiz-adv-x="723" vert-adv-y="1000"  />

      
      <glyph glyph-name="uni0123" unicode="&#x0123;" d="M81-163L134-76Q187-112 271-112Q318-112 348.50-83.50Q379-55 379-6L379 45Q326 0 251 0Q152 0 94 63.50Q36 127 36 228Q36 336 108.50 407.50Q181 479 301 479Q408 479 497 448L497-8Q497-104 434.50-158Q372-212 273-212Q145-212 81-163M379 199L379 367Q352 377 303 377Q235 377 195.50 334.50Q156 292 156 231Q156 174 184.50 138.50Q213 103 270 103Q379 103 379 199M231 540L310 682L405 682L357 540L231 540Z"  horiz-adv-x="555" vert-adv-y="1000"  />

      
      <glyph glyph-name="uni0124" unicode="&#x0124;" d="M70 0L70 667L196 667L196 399L527 399L527 667L653 667L653 0L527 0L527 287L196 287L196 0L70 0M195 717L305 873L416 873L526 717L422 717L360 799L299 717L195 717Z"  horiz-adv-x="723" vert-adv-y="1000"  />

      
      <glyph glyph-name="uni0125" unicode="&#x0125;" d="M58 0L58 667L174 667L174 421Q226 479 315 479Q401 479 448 426.50Q495 374 495 285L495 0L377 0L377 284Q377 328 353 353Q329 378 289 378Q241 378 208.50 342Q176 306 176 254L176 0L58 0M62 717L172 873L283 873L393 717L289 717L227 799L166 717L62 717Z"  horiz-adv-x="551" vert-adv-y="1000"  />

      
      <glyph glyph-name="uni0126" unicode="&#x0126;" d="M70 0L70 487L0 487L0 575L70 575L70 667L195 667L195 575L528 575L528 667L653 667L653 575L723 575L723 487L653 487L653 0L528 0L528 287L195 287L195 0L70 0M195 399L528 399L528 487L195 487L195 399Z"  horiz-adv-x="723" vert-adv-y="1000"  />

      
      <glyph glyph-name="uni0127" unicode="&#x0127;" d="M58 0L58 522L2 522L2 601L58 601L58 667L174 667L174 601L346 601L346 522L174 522L174 401Q226 459 315 459Q401 459 448 406.50Q495 354 495 265L495 0L377 0L377 264Q377 308 353 333Q329 358 289 358Q241 358 208.50 322Q176 286 176 234L176 0L58 0Z"  horiz-adv-x="551" vert-adv-y="1000"  />

      
      <glyph glyph-name="uni0128" unicode="&#x0128;" d="M70 0L70 667L196 667L196 0L70 0M-17 729L-66 804Q-5 865 62 865Q92 865 130.50 844Q169 823 197 823Q242 823 289 860L338 785Q275 722 211 722Q182 722 142.50 744Q103 766 75 766Q30 766-17 729Z"  horiz-adv-x="266" vert-adv-y="1000"  />

      
      <glyph glyph-name="uni0129" unicode="&#x0129;" d="M63 0L63 469L181 469L181 0L63 0M-23 545L-68 615Q-48 637-15.50 655Q17 673 53 673Q81 673 118 652.50Q155 632 182 632Q195 632 206 634Q217 636 227.50 641Q238 646 243 649Q248 652 258.50 659.50Q269 667 270 668L315 598Q260 538 195 538Q167 538 129.50 559.50Q92 581 65 581Q52 581 41 579Q30 577 19.50 572Q9 567 4 564Q-1 561-11.50 553.50Q-22 546-23 545Z"  horiz-adv-x="244" vert-adv-y="1000"  />

      
      <glyph glyph-name="uni012A" unicode="&#x012A;" d="M70 0L70 667L196 667L196 0L70 0M-23 747L-23 844L292 844L292 747L-23 747Z"  horiz-adv-x="266" vert-adv-y="1000"  />

      
      <glyph glyph-name="uni012B" unicode="&#x012B;" d="M63 0L63 469L181 469L181 0L63 0M-8 557L-8 649L253 649L253 557L-8 557Z"  horiz-adv-x="244" vert-adv-y="1000"  />

      
      <glyph glyph-name="uni012C" unicode="&#x012C;" d="M70 0L70 667L196 667L196 0L70 0M-27 863L66 863Q66 835 84 815.50Q102 796 133 796Q164 796 182 815.50Q200 835 200 863L293 863Q293 801 251.50 757.50Q210 714 133 714Q56 714 14.50 757.50Q-27 801-27 863Z"  horiz-adv-x="266" vert-adv-y="1000"  />

      
      <glyph glyph-name="uni012D" unicode="&#x012D;" d="M63 0L63 469L181 469L181 0L63 0M-29 682L63 682Q63 655 77.50 636Q92 617 125 617Q158 617 172.50 636Q187 655 187 682L279 682Q279 624 238 582Q197 540 125 540Q53 540 12 582Q-29 624-29 682Z"  horiz-adv-x="244" vert-adv-y="1000"  />

      
      <glyph glyph-name="uni012E" unicode="&#x012E;" d="M70 0L70 667L196 667L196 0Q149-47 149-82Q149-103 175-103Q200-103 225-86L254-161Q198-198 141-198Q91-198 65.50-176.50Q40-155 40-118Q40-65 103 0L70 0Z"  horiz-adv-x="266" vert-adv-y="1000"  />

      
      <glyph glyph-name="uni012F" unicode="&#x012F;" d="M63 0L63 469L181 469L181 0Q129-50 129-80Q129-101 154-101Q180-101 209-82L237-156Q185-192 127-192Q29-192 29-114Q29-65 90 0L63 0M59 543L59 667L185 667L185 543L59 543Z"  horiz-adv-x="244" vert-adv-y="1000"  />

      
      <glyph glyph-name="uni0130" unicode="&#x0130;" d="M70 0L70 667L196 667L196 0L70 0M68 734L68 857L197 857L197 734L68 734Z"  horiz-adv-x="266" vert-adv-y="1000"  />

      
      <glyph glyph-name="uni0131" unicode="&#x0131;" d="M63 0L63 469L181 469L181 0L63 0Z"  horiz-adv-x="244" vert-adv-y="1000"  />

      
      <glyph glyph-name="uni0132" unicode="&#x0132;" d="M70 0L70 667L196 667L196 0L70 0M293 77L381 157Q412 123 438.50 111Q465 99 502 99Q541 99 570.50 126.50Q600 154 600 203L600 667L726 667L726 196Q726 86 662 34Q598-18 508-18Q368-18 293 77Z"  horiz-adv-x="791" vert-adv-y="1000"  />

      
      <glyph glyph-name="uni0133" unicode="&#x0133;" d="M59 543L59 667L185 667L185 543L59 543M63 0L63 469L181 469L181 0L63 0M289 543L289 667L415 667L415 543L289 543M144-163L188-83Q215-99 242-99Q266-99 280-79.50Q294-60 294-24L294 469L412 469L412-1Q412-200 258-200Q197-200 144-163Z"  horiz-adv-x="475" vert-adv-y="1000"  />

      
      <glyph glyph-name="uni0134" unicode="&#x0134;" d="M10 77L98 157Q129 123 155.50 111Q182 99 219 99Q258 99 287.50 126.50Q317 154 317 203L317 667L443 667L443 196Q443 86 379 34Q315-18 225-18Q85-18 10 77M216 717L326 873L437 873L547 717L443 717L381 799L320 717L216 717Z"  horiz-adv-x="508" vert-adv-y="1000"  />

      
      <glyph glyph-name="uni0135" unicode="&#x0135;" d="M-36 540L68 682L179 682L283 540L179 540L123 616L68 540L-36 540M-87-163L-43-83Q-16-99 11-99Q35-99 49-79.50Q63-60 63-24L63 469L181 469L181-1Q181-200 27-200Q-34-200-87-163Z"  horiz-adv-x="244" vert-adv-y="1000"  />

      
      <glyph glyph-name="uni0136" unicode="&#x0136;" d="M70 0L70 667L196 667L196 393L443 667L586 667L340 394L613 0L461 0L258 303L196 234L196 0L70 0M193-209L246-51L385-51L297-209L193-209Z"  horiz-adv-x="621" vert-adv-y="1000"  />

      
      <glyph glyph-name="uni0137" unicode="&#x0137;" d="M58 0L58 667L176 667L176 303L345 469L484 469L308 296L504 0L363 0L227 216L176 166L176 0L58 0M155-193L203-51L329-51L250-193L155-193Z"  horiz-adv-x="512" vert-adv-y="1000"  />

      
      <glyph glyph-name="uni0138" unicode="&#x0138;" d="M58 0L58 469L176 469L176 303L345 469L484 469L308 296L504 0L363 0L227 216L176 166L176 0L58 0Z"  horiz-adv-x="512" vert-adv-y="1000"  />

      
      <glyph glyph-name="uni0139" unicode="&#x0139;" d="M70 0L70 667L196 667L196 112L525 112L525 0L70 0M80 717L153 873L299 873L185 717L80 717Z"  horiz-adv-x="553" vert-adv-y="1000"  />

      
      <glyph glyph-name="uni013A" unicode="&#x013A;" d="M58 0L58 667L176 667L176 0L58 0M58 717L131 873L277 873L163 717L58 717Z"  horiz-adv-x="234" vert-adv-y="1000"  />

      
      <glyph glyph-name="uni013B" unicode="&#x013B;" d="M70 0L70 667L196 667L196 112L525 112L525 0L70 0M180-209L233-51L372-51L284-209L180-209Z"  horiz-adv-x="553" vert-adv-y="1000"  />

      
      <glyph glyph-name="uni013C" unicode="&#x013C;" d="M58 0L58 667L176 667L176 0L58 0M5-193L53-51L179-51L100-193L5-193Z"  horiz-adv-x="234" vert-adv-y="1000"  />

      
      <glyph glyph-name="uni013D" unicode="&#x013D;" d="M288 478L288 667L417 667L383 478L288 478M70 0L70 667L196 667L196 112L525 112L525 0L70 0Z"  horiz-adv-x="553" vert-adv-y="1000"  />

      
      <glyph glyph-name="uni013E" unicode="&#x013E;" d="M58 0L58 667L176 667L176 0L58 0M229 498L229 667L339 667L305 498L229 498Z"  horiz-adv-x="234" vert-adv-y="1000"  />

      
      <glyph glyph-name="uni013F" unicode="&#x013F;" d="M70 0L70 667L196 667L196 112L525 112L525 0L70 0M341 317L341 440L470 440L470 317L341 317Z"  horiz-adv-x="553" vert-adv-y="1000"  />

      
      <glyph glyph-name="uni0140" unicode="&#x0140;" d="M58 0L58 667L176 667L176 0L58 0M248 297L248 414L371 414L371 297L248 297Z"  horiz-adv-x="384" vert-adv-y="1000"  />

      
      <glyph glyph-name="uni0141" unicode="&#x0141;" d="M70 0L70 252L3 210L3 319L70 361L70 667L196 667L196 441L339 532L339 422L196 332L196 112L525 112L525 0L70 0Z"  horiz-adv-x="553" vert-adv-y="1000"  />

      
      <glyph glyph-name="uni0142" unicode="&#x0142;" d="M58 0L58 262L3 227L3 327L58 362L58 667L176 667L176 439L231 475L231 375L176 339L176 0L58 0Z"  horiz-adv-x="234" vert-adv-y="1000"  />

      
      <glyph glyph-name="uni0143" unicode="&#x0143;" d="M70 0L70 667L197 667L520 193L520 667L643 667L643 0L519 0L193 480L193 0L70 0M295 717L368 873L514 873L400 717L295 717Z"  horiz-adv-x="713" vert-adv-y="1000"  />

      
      <glyph glyph-name="uni0144" unicode="&#x0144;" d="M58 0L58 469L171 469L174 416Q232 479 315 479Q402 479 448.50 427.50Q495 376 495 285L495 0L377 0L377 284Q377 328 353 353Q329 378 289 378Q241 378 208.50 342Q176 306 176 254L176 0L58 0M231 540L279 682L405 682L326 540L231 540Z"  horiz-adv-x="551" vert-adv-y="1000"  />

      
      <glyph glyph-name="uni0145" unicode="&#x0145;" d="M70 0L70 667L197 667L520 193L520 667L643 667L643 0L519 0L193 480L193 0L70 0M257-209L310-51L449-51L361-209L257-209Z"  horiz-adv-x="713" vert-adv-y="1000"  />

      
      <glyph glyph-name="uni0146" unicode="&#x0146;" d="M58 0L58 469L171 469L174 416Q232 479 315 479Q402 479 448.50 427.50Q495 376 495 285L495 0L377 0L377 284Q377 328 353 353Q329 378 289 378Q241 378 208.50 342Q176 306 176 254L176 0L58 0M168-193L216-51L342-51L263-193L168-193Z"  horiz-adv-x="551" vert-adv-y="1000"  />

      
      <glyph glyph-name="uni0147" unicode="&#x0147;" d="M70 0L70 667L197 667L520 193L520 667L643 667L643 0L519 0L193 480L193 0L70 0M304 717L194 873L298 873L360 791L421 873L525 873L415 717L304 717Z"  horiz-adv-x="713" vert-adv-y="1000"  />

      
      <glyph glyph-name="uni0148" unicode="&#x0148;" d="M58 0L58 469L171 469L174 416Q232 479 315 479Q402 479 448.50 427.50Q495 376 495 285L495 0L377 0L377 284Q377 328 353 353Q329 378 289 378Q241 378 208.50 342Q176 306 176 254L176 0L58 0M226 540L122 682L226 682L282 606L337 682L441 682L337 540L226 540Z"  horiz-adv-x="551" vert-adv-y="1000"  />

      
      <glyph glyph-name="uni0149" unicode="&#x0149;" d="M58 0L58 469L171 469L174 416Q232 479 315 479Q402 479 448.50 427.50Q495 376 495 285L495 0L377 0L377 284Q377 328 353 353Q329 378 289 378Q241 378 208.50 342Q176 306 176 254L176 0L58 0M14 540L22 682L141 682L102 540L14 540Z"  horiz-adv-x="551" vert-adv-y="1000"  />

      
      <glyph glyph-name="uni014A" unicode="&#x014A;" d="M70 0L70 667L197 667L520 193L520 667L643 667L643 0Q643-200 483-200Q421-200 363-163L409-79Q436-95 465-95Q519-95 519-18L519 0L193 480L193 0L70 0Z"  horiz-adv-x="713" vert-adv-y="1000"  />

      
      <glyph glyph-name="uni014B" unicode="&#x014B;" d="M58 0L58 469L171 469L174 416Q232 479 315 479Q401 479 448 426.50Q495 374 495 285L495 0Q495-199 341-199Q280-199 227-162L271-82Q298-98 325-98Q349-98 363-78.50Q377-59 377-23L377 284Q377 328 353 353Q329 378 289 378Q241 378 208.50 342Q176 306 176 254L176 0L58 0Z"  horiz-adv-x="551" vert-adv-y="1000"  />

      
      <glyph glyph-name="uni014C" unicode="&#x014C;" d="M637 84.50Q637 84.50 586.50 33.25Q536-18 391-18Q246-18 145 84.50Q44 187 44 334Q44 481 144.50 583Q245 685 391 685Q536 685 637 582.50Q738 480 738 334Q738 187 637 84.50M235.50 170Q235.50 170 265.25 135.50Q295 101 391 101Q487 101 546.50 170Q606 239 606 337Q606 436 547 503.50Q488 571 391 571Q294 571 235 503.50Q176 436 176 337Q176 239 235.50 170M235 747L235 844L550 844L550 747L235 747Z"  horiz-adv-x="782" vert-adv-y="1000"  />

      
      <glyph glyph-name="uni014D" unicode="&#x014D;" d="M107 57.50Q107 57.50 71.50 94.25Q36 131 36 235Q36 339 107 412Q178 485 288 485Q398 485 469 412Q540 339 540 235Q540 131 469 57.50Q398-16 288-16Q178-16 107 57.50M190 132Q190 132 207.50 109Q225 86 288 86Q351 86 386 132Q421 178 421 235Q421 292 386 337.50Q351 383 288 383Q225 383 190 337.50Q155 292 155 235Q155 178 190 132M159 558L159 650L420 650L420 558L159 558Z"  horiz-adv-x="576" vert-adv-y="1000"  />

      
      <glyph glyph-name="uni014E" unicode="&#x014E;" d="M637 84.50Q637 84.50 586.50 33.25Q536-18 391-18Q246-18 145 84.50Q44 187 44 334Q44 481 144.50 583Q245 685 391 685Q536 685 637 582.50Q738 480 738 334Q738 187 637 84.50M235.50 170Q235.50 170 265.25 135.50Q295 101 391 101Q487 101 546.50 170Q606 239 606 337Q606 436 547 503.50Q488 571 391 571Q294 571 235 503.50Q176 436 176 337Q176 239 235.50 170M231 863L324 863Q324 835 342 815.50Q360 796 391 796Q422 796 440 815.50Q458 835 458 863L551 863Q551 801 509.50 757.50Q468 714 391 714Q314 714 272.50 757.50Q231 801 231 863Z"  horiz-adv-x="782" vert-adv-y="1000"  />

      
      <glyph glyph-name="uni014F" unicode="&#x014F;" d="M107 57.50Q107 57.50 71.50 94.25Q36 131 36 235Q36 339 107 412Q178 485 288 485Q398 485 469 412Q540 339 540 235Q540 131 469 57.50Q398-16 288-16Q178-16 107 57.50M190 132Q190 132 207.50 109Q225 86 288 86Q351 86 386 132Q421 178 421 235Q421 292 386 337.50Q351 383 288 383Q225 383 190 337.50Q155 292 155 235Q155 178 190 132M135 682L227 682Q227 655 241.50 636Q256 617 289 617Q322 617 336.50 636Q351 655 351 682L443 682Q443 624 402 582Q361 540 289 540Q217 540 176 582Q135 624 135 682Z"  horiz-adv-x="576" vert-adv-y="1000"  />

      
      <glyph glyph-name="uni0150" unicode="&#x0150;" d="M637 84.50Q637 84.50 586.50 33.25Q536-18 391-18Q246-18 145 84.50Q44 187 44 334Q44 481 144.50 583Q245 685 391 685Q536 685 637 582.50Q738 480 738 334Q738 187 637 84.50M235.50 170Q235.50 170 265.25 135.50Q295 101 391 101Q487 101 546.50 170Q606 239 606 337Q606 436 547 503.50Q488 571 391 571Q294 571 235 503.50Q176 436 176 337Q176 239 235.50 170M256 717L329 873L467 873L353 717L256 717M441 717L514 873L652 873L538 717L441 717Z"  horiz-adv-x="782" vert-adv-y="1000"  />

      
      <glyph glyph-name="uni0151" unicode="&#x0151;" d="M107 57.50Q107 57.50 71.50 94.25Q36 131 36 235Q36 339 107 412Q178 485 288 485Q398 485 469 412Q540 339 540 235Q540 131 469 57.50Q398-16 288-16Q178-16 107 57.50M190 132Q190 132 207.50 109Q225 86 288 86Q351 86 386 132Q421 178 421 235Q421 292 386 337.50Q351 383 288 383Q225 383 190 337.50Q155 292 155 235Q155 178 190 132M317 540L365 682L484 682L405 540L317 540M155 540L203 682L322 682L243 540L155 540Z"  horiz-adv-x="576" vert-adv-y="1000"  />

      
      <glyph glyph-name="uni0152" unicode="&#x0152;" d="M606 0L606 83Q574 37 514 9.50Q454-18 385-18Q243-18 143.50 85Q44 188 44 334Q44 480 143.50 582.50Q243 685 385 685Q455 685 514 657.50Q573 630 606 586L606 667L1038 667L1038 556L728 556L728 399L957 399L957 287L728 287L728 113L1061 113L1061 0L606 0M391 101Q486 101 545.50 170Q605 239 605 337Q605 436 546 503.50Q487 571 390 571Q293 571 234 503.50Q175 436 175 337Q175 239 235 170Q295 101 391 101Z"  horiz-adv-x="1104" vert-adv-y="1000"  />

      
      <glyph glyph-name="uni0153" unicode="&#x0153;" d="M819 140L883 68L881 66Q806-16 668-16Q544-16 476 77Q445 34 395.50 9Q346-16 288-16Q178-16 107 57.50Q36 131 36 235Q36 339 107 412Q178 485 288 485Q344 485 393 460.50Q442 436 474 395Q542 485 658 485Q720 485 766.50 462Q813 439 838.50 399.50Q864 360 876.50 314Q889 268 889 216L889 199L539 199Q539 150 579.50 117.50Q620 85 669 85Q764 85 819 140M538 284L768 284Q768 323 738.50 354.50Q709 386 658 386Q604 386 571 354.50Q538 323 538 284M190 132Q190 132 207.50 109Q225 86 288 86Q351 86 386 132Q421 178 421 235Q421 292 386 337.50Q351 383 288 383Q225 383 190 337.50Q155 292 155 235Q155 178 190 132Z"  horiz-adv-x="922" vert-adv-y="1000"  />

      
      <glyph glyph-name="uni0154" unicode="&#x0154;" d="M70 0L70 667L291 667Q351 667 397.50 648Q444 629 469.50 599Q495 569 508 535.50Q521 502 521 468Q521 336 409 279L563 0L421 0L286 263L191 263L191 0L70 0M191 367L292 367Q339 367 366 394.50Q393 422 393 463Q393 506 365 533Q337 560 292 560L191 560L191 367M206 717L279 873L425 873L311 717L206 717Z"  horiz-adv-x="586" vert-adv-y="1000"  />

      
      <glyph glyph-name="uni0155" unicode="&#x0155;" d="M58 0L58 469L171 469L174 410Q229 478 315 478Q349 478 373 469L349 358Q328 367 295 367Q245 367 210.50 335.50Q176 304 176 253L176 0L58 0M166 540L214 682L340 682L261 540L166 540Z"  horiz-adv-x="382" vert-adv-y="1000"  />

      
      <glyph glyph-name="uni0156" unicode="&#x0156;" d="M70 0L70 667L291 667Q351 667 397.50 648Q444 629 469.50 599Q495 569 508 535.50Q521 502 521 468Q521 336 409 279L563 0L421 0L286 263L191 263L191 0L70 0M191 367L292 367Q339 367 366 394.50Q393 422 393 463Q393 506 365 533Q337 560 292 560L191 560L191 367M183-209L236-51L375-51L287-209L183-209Z"  horiz-adv-x="586" vert-adv-y="1000"  />

      
      <glyph glyph-name="uni0157" unicode="&#x0157;" d="M58 0L58 469L171 469L174 410Q229 478 315 478Q349 478 373 469L349 358Q328 367 295 367Q245 367 210.50 335.50Q176 304 176 253L176 0L58 0M9-193L57-51L183-51L104-193L9-193Z"  horiz-adv-x="382" vert-adv-y="1000"  />

      
      <glyph glyph-name="uni0158" unicode="&#x0158;" d="M70 0L70 667L291 667Q351 667 397.50 648Q444 629 469.50 599Q495 569 508 535.50Q521 502 521 468Q521 336 409 279L563 0L421 0L286 263L191 263L191 0L70 0M191 367L292 367Q339 367 366 394.50Q393 422 393 463Q393 506 365 533Q337 560 292 560L191 560L191 367M218 717L108 873L212 873L274 791L335 873L439 873L329 717L218 717Z"  horiz-adv-x="586" vert-adv-y="1000"  />

      
      <glyph glyph-name="uni0159" unicode="&#x0159;" d="M58 0L58 469L171 469L174 410Q229 478 315 478Q349 478 373 469L349 358Q328 367 295 367Q245 367 210.50 335.50Q176 304 176 253L176 0L58 0M154 540L50 682L154 682L210 606L265 682L369 682L265 540L154 540Z"  horiz-adv-x="382" vert-adv-y="1000"  />

      
      <glyph glyph-name="uni015A" unicode="&#x015A;" d="M31 107L119 188Q197 98 288 98Q345 98 374.50 124Q404 150 404 190Q404 233 369 256.50Q334 280 244 298Q156 315 110.50 368.50Q65 422 65 493Q65 574 125 629.50Q185 685 297 685Q430 685 508 594Q510 592 511 591L428 513L419 522Q410 530 404 534.50Q398 539 384.50 547.50Q371 556 359 561Q347 566 329.50 570Q312 574 293 574Q245 574 218.50 550.50Q192 527 192 499Q192 462 222 439.50Q252 417 331 402Q419 384 474.50 332Q530 280 530 187Q530 100 462 41Q394-18 290-18Q130-18 31 107M236 717L309 873L455 873L341 717L236 717Z"  horiz-adv-x="593" vert-adv-y="1000"  />

      
      <glyph glyph-name="uni015B" unicode="&#x015B;" d="M35 57L106 134Q157 83 238 83Q322 83 322 126Q322 147 298.50 162Q275 177 203 194Q53 232 53 338Q53 404 112 444.50Q171 485 246 485Q360 485 430 433L369 350Q320 387 246 387Q171 387 171 344Q171 323 196 310.50Q221 298 284 283Q360 266 400 231Q440 196 440 132Q440 66 381.50 25Q323-16 239-16Q100-16 35 57M199 540L247 682L373 682L294 540L199 540Z"  horiz-adv-x="478" vert-adv-y="1000"  />

      
      <glyph glyph-name="uni015C" unicode="&#x015C;" d="M31 107L119 188Q197 98 288 98Q345 98 374.50 124Q404 150 404 190Q404 233 369 256.50Q334 280 244 298Q156 315 110.50 368.50Q65 422 65 493Q65 574 125 629.50Q185 685 297 685Q430 685 508 594Q510 592 511 591L428 513L419 522Q410 530 404 534.50Q398 539 384.50 547.50Q371 556 359 561Q347 566 329.50 570Q312 574 293 574Q245 574 218.50 550.50Q192 527 192 499Q192 462 222 439.50Q252 417 331 402Q419 384 474.50 332Q530 280 530 187Q530 100 462 41Q394-18 290-18Q130-18 31 107M132 717L242 873L353 873L463 717L359 717L297 799L236 717L132 717Z"  horiz-adv-x="593" vert-adv-y="1000"  />

      
      <glyph glyph-name="uni015D" unicode="&#x015D;" d="M35 57L106 134Q157 83 238 83Q322 83 322 126Q322 147 298.50 162Q275 177 203 194Q53 232 53 338Q53 404 112 444.50Q171 485 246 485Q360 485 430 433L369 350Q320 387 246 387Q171 387 171 344Q171 323 196 310.50Q221 298 284 283Q360 266 400 231Q440 196 440 132Q440 66 381.50 25Q323-16 239-16Q100-16 35 57M92 540L196 682L307 682L411 540L307 540L251 616L196 540L92 540Z"  horiz-adv-x="478" vert-adv-y="1000"  />

      
      <glyph glyph-name="uni015E" unicode="&#x015E;" d="M31 107L119 188Q197 98 288 98Q345 98 374.50 124Q404 150 404 190Q404 233 369 256.50Q334 280 244 298Q156 315 110.50 368.50Q65 422 65 493Q65 574 125 629.50Q185 685 297 685Q430 685 508 594Q510 592 511 591L428 513L419 522Q410 530 404 534.50Q398 539 384.50 547.50Q371 556 359 561Q347 566 329.50 570Q312 574 293 574Q245 574 218.50 550.50Q192 527 192 499Q192 462 222 439.50Q252 417 331 402Q419 384 474.50 332Q530 280 530 187Q530 100 462 41Q394-18 290-18Q130-18 31 107M165-219L178-150Q211-162 248-162Q304-162 304-132Q304-103 252-103Q215-103 188-114L199-46Q240-34 284-34Q338-34 369.50-59.50Q401-85 401-127Q401-177 361.50-205Q322-233 268-233Q226-233 193-226Q175-223 165-219Z"  horiz-adv-x="593" vert-adv-y="1000"  />

      
      </font>
</defs>
</svg>
